<svg id="Layer_1" data-name="Layer 1" xmlns="http://www.w3.org/2000/svg" viewBox="0 0 16 16">
  <defs>
    <style>
      .cls-1 {
        fill: #6f9a42;
      }

      .cls-2 {
        fill: #bec039;
      }

      .cls-3 {
        fill: #bac236;
      }

      .cls-4 {
        fill: #c2c258;
      }

      .cls-5 {
        fill: #bebf3c;
      }

      .cls-6 {
        fill: #bec238;
      }

      .cls-7 {
        fill: #bec048;
      }

      .cls-8 {
        fill: #719a47;
      }

      .cls-9 {
        fill: #769452;
      }

      .cls-10 {
        fill: #719a45;
      }

      .cls-11 {
        fill: #729a42;
      }

      .cls-12 {
        fill: #bfc13b;
      }

      .cls-13 {
        fill: #bcc04d;
      }

      .cls-14 {
        fill: #bdc237;
      }

      .cls-15 {
        fill: #bcc03f;
      }

      .cls-16 {
        fill: #c1be4a;
      }

      .cls-17 {
        fill: #6e9944;
      }

      .cls-18 {
        fill: #6e9c41;
      }

      .cls-19 {
        fill: #bfc03f;
      }

      .cls-20 {
        fill: #bebf4c;
      }

      .cls-21 {
        fill: #bdbe44;
      }

      .cls-22 {
        fill: #759c47;
      }

      .cls-23 {
        fill: #7a9455;
      }

      .cls-24 {
        fill: #bcbf4e;
      }

      .cls-25 {
        fill: #bebe3d;
      }

      .cls-26 {
        fill: #759845;
      }

      .cls-27 {
        fill: #759547;
      }

      .cls-28 {
        fill: #bfc245;
      }

      .cls-29 {
        fill: #bcc148;
      }

      .cls-30 {
        fill: #729b49;
      }

      .cls-31 {
        fill: #769550;
      }

      .cls-32 {
        fill: #bfc15a;
      }

      .cls-33 {
        fill: #799854;
      }

      .cls-34 {
        fill: #bebf4d;
      }

      .cls-35 {
        fill: #bebf48;
      }

      .cls-36 {
        fill: #7c9859;
      }

      .cls-37 {
        fill: #bcc14e;
      }

      .cls-38 {
        fill: #bcc043;
      }

      .cls-39 {
        fill: #bdc357;
      }

      .cls-40 {
        fill: #79975a;
      }

      .cls-41 {
        fill: #799552;
      }

      .cls-42 {
        fill: #c2c85d;
      }

      .cls-43 {
        fill: #bdbf5b;
      }

      .cls-44 {
        fill: #7c9854;
      }

      .cls-45 {
        fill: #749658;
      }

      .cls-46 {
        fill: #bfc932;
      }

      .cls-47 {
        fill: #6e8647;
      }

      .cls-48 {
        fill: #739944;
      }

      .cls-49 {
        fill: #bcc040;
      }

      .cls-50 {
        fill: #7b9958;
      }

      .cls-51 {
        fill: #bec044;
      }

      .cls-52 {
        fill: #789555;
      }

      .cls-53 {
        fill: #72974d;
      }

      .cls-54 {
        fill: #719b44;
      }

      .cls-55 {
        fill: #c0bc60;
      }

      .cls-56 {
        fill: #bfc55d;
      }

      .cls-57 {
        fill: #c1c548;
      }

      .cls-58 {
        fill: #bdc253;
      }

      .cls-59 {
        fill: #709844;
      }

      .cls-60 {
        fill: #b8c049;
      }

      .cls-61 {
        fill: #bec54b;
      }

      .cls-62 {
        fill: #799c50;
      }

      .cls-63 {
        fill: #bdc03d;
      }

      .cls-64 {
        fill: #c4c359;
      }

      .cls-65 {
        fill: #c4c55d;
      }

      .cls-66 {
        fill: #c7c679;
      }

      .cls-67 {
        fill: #bfc34e;
      }

      .cls-68 {
        fill: #859c6b;
      }

      .cls-69 {
        fill: #c5c64c;
      }

      .cls-70 {
        fill: #b6c238;
      }

      .cls-71 {
        fill: #bdbf47;
      }

      .cls-72 {
        fill: #bfbf3f;
      }

      .cls-73 {
        fill: #c1c048;
      }

      .cls-74 {
        fill: #849e69;
      }

      .cls-75 {
        fill: #bec255;
      }

      .cls-76 {
        fill: #6e8e41;
      }

      .cls-77 {
        fill: #879d79;
      }

      .cls-78 {
        fill: #739f47;
      }

      .cls-79 {
        fill: #c3c448;
      }

      .cls-80 {
        fill: #698f3f;
      }

      .cls-81 {
        fill: #6f9b41;
      }

      .cls-82 {
        fill: #6e9b42;
      }

      .cls-83 {
        fill: #6e9c42;
      }

      .cls-84 {
        fill: #6e9b41;
      }

      .cls-85 {
        fill: #759653;
      }

      .cls-86 {
        fill: #6d9a46;
      }

      .cls-87 {
        fill: #699d42;
      }

      .cls-88 {
        fill: #6f9b42;
      }

      .cls-89 {
        fill: #6e9c43;
      }

      .cls-90 {
        fill: #709c43;
      }

      .cls-91 {
        fill: #6c9b45;
      }

      .cls-92 {
        fill: #6c9a48;
      }

      .cls-93 {
        fill: #6f9a45;
      }

      .cls-94 {
        fill: #6a9d41;
      }

      .cls-95 {
        fill: #719944;
      }

      .cls-96 {
        fill: #6f9a43;
      }

      .cls-97 {
        fill: #6b9c42;
      }

      .cls-98 {
        fill: #6c9e41;
      }

      .cls-99 {
        fill: #799153;
      }

      .cls-100 {
        fill: #6e9949;
      }

      .cls-101 {
        fill: #719846;
      }

      .cls-102 {
        fill: #6f9949;
      }

      .cls-103 {
        fill: #7b9554;
      }

      .cls-104 {
        fill: #6f974a;
      }

      .cls-105 {
        fill: #70984b;
      }

      .cls-106 {
        fill: #688b42;
      }

      .cls-107 {
        fill: #729c4c;
      }

      .cls-108 {
        fill: #7d9c62;
      }

      .cls-109 {
        fill: #70943e;
      }

      .cls-110 {
        fill: #70974f;
      }

      .cls-111 {
        fill: #6d9c41;
      }

      .cls-112 {
        fill: #6c9144;
      }

      .cls-113 {
        fill: #779854;
      }

      .cls-114 {
        fill: #7c985f;
      }

      .cls-115 {
        fill: #6d994b;
      }

      .cls-116 {
        fill: #719847;
      }

      .cls-117 {
        fill: #689c41;
      }

      .cls-118 {
        fill: #71974b;
      }

      .cls-119 {
        fill: #6b8e40;
      }

      .cls-120 {
        fill: #6f9440;
      }

      .cls-121 {
        fill: #6f954c;
      }

      .cls-122 {
        fill: #689754;
      }

      .cls-123 {
        fill: #6b9240;
      }

      .cls-124 {
        fill: #6b9a4b;
      }

      .cls-125 {
        fill: #6f994a;
      }

      .cls-126 {
        fill: #849d67;
      }

      .cls-127 {
        fill: #65913f;
      }

      .cls-128 {
        fill: #bfbe42;
      }

      .cls-129 {
        fill: #bdc233;
      }

      .cls-130 {
        fill: #bdc137;
      }

      .cls-131 {
        fill: #bfbe45;
      }

      .cls-132 {
        fill: #bdc03f;
      }

      .cls-133 {
        fill: #c3bb46;
      }

      .cls-134 {
        fill: #bfc036;
      }

      .cls-135 {
        fill: #bdbf41;
      }

      .cls-136 {
        fill: #bdc141;
      }

      .cls-137 {
        fill: #bac23a;
      }

      .cls-138 {
        fill: #bdc03e;
      }

      .cls-139 {
        fill: #bec03e;
      }

      .cls-140 {
        fill: #bcc234;
      }

      .cls-141 {
        fill: #bec137;
      }

      .cls-142 {
        fill: #bbc333;
      }

      .cls-143 {
        fill: #bec134;
      }

      .cls-144 {
        fill: #bebf40;
      }

      .cls-145 {
        fill: #bdbf40;
      }

      .cls-146 {
        fill: #bec033;
      }

      .cls-147 {
        fill: #bbc236;
      }

      .cls-148 {
        fill: #bebe49;
      }

      .cls-149 {
        fill: #bac238;
      }

      .cls-150 {
        fill: #bdbf4f;
      }

      .cls-151 {
        fill: #bdc234;
      }

      .cls-152 {
        fill: #bdc33d;
      }

      .cls-153 {
        fill: #bebf44;
      }

      .cls-154 {
        fill: #bdc134;
      }

      .cls-155 {
        fill: #bebf42;
      }

      .cls-156 {
        fill: #c1be44;
      }

      .cls-157 {
        fill: #bfbe44;
      }

      .cls-158 {
        fill: #bbc335;
      }

      .cls-159 {
        fill: #bcc433;
      }

      .cls-160 {
        fill: #bdbd50;
      }

      .cls-161 {
        fill: #c0bf48;
      }

      .cls-162 {
        fill: #c0bf4a;
      }

      .cls-163 {
        fill: #bdbe47;
      }

      .cls-164 {
        fill: #c1bd71;
      }

      .cls-165 {
        fill: #bfbb5b;
      }

      .cls-166 {
        fill: #bebd49;
      }

      .cls-167 {
        fill: #bfc132;
      }

      .cls-168 {
        fill: #bbbe4f;
      }

      .cls-169 {
        fill: #bdc267;
      }

      .cls-170 {
        fill: #b8c335;
      }

      .cls-171 {
        fill: #c1c043;
      }

      .cls-172 {
        fill: #bac234;
      }

      .cls-173 {
        fill: #bbc044;
      }

      .cls-174 {
        fill: #bebf43;
      }

      .cls-175 {
        fill: #b9c534;
      }

      .cls-176 {
        fill: #bcc435;
      }

      .cls-177 {
        fill: #bfbb50;
      }

      .cls-178 {
        fill: #c1bd46;
      }

      .cls-179 {
        fill: #bfbf40;
      }

      .cls-180 {
        fill: #c0c433;
      }

      .cls-181 {
        fill: #b8c035;
      }

      .cls-182 {
        fill: #b5c65d;
      }

      .cls-183 {
        fill: #bfc142;
      }

      .cls-184 {
        fill: #bfbf41;
      }

      .cls-185 {
        fill: #bac339;
      }

      .cls-186 {
        fill: #bfbe41;
      }

      .cls-187 {
        fill: #bdc135;
      }

      .cls-188 {
        fill: #bec23d;
      }

      .cls-189 {
        fill: #bfc43f;
      }

      .cls-190 {
        fill: #bcc046;
      }

      .cls-191 {
        fill: #bdc13b;
      }

      .cls-192 {
        fill: #bebf4a;
      }

      .cls-193 {
        fill: #bcc333;
      }

      .cls-194 {
        fill: #c0c034;
      }

      .cls-195 {
        fill: #bec133;
      }

      .cls-196 {
        fill: #bcbe4f;
      }

      .cls-197 {
        fill: #bcbf34;
      }

      .cls-198 {
        fill: #bebe47;
      }

      .cls-199 {
        fill: #c0be47;
      }

      .cls-200 {
        fill: #bcbf45;
      }

      .cls-201 {
        fill: #c3bf37;
      }

      .cls-202 {
        fill: #c0c463;
      }

      .cls-203 {
        fill: #bbbf4b;
      }

      .cls-204 {
        fill: #c0c432;
      }

      .cls-205 {
        fill: #bebe55;
      }

      .cls-206 {
        fill: #bfc232;
      }

      .cls-207 {
        fill: #c1c43f;
      }

      .cls-208 {
        fill: #c1bf39;
      }

      .cls-209 {
        fill: #c1bf3e;
      }

      .cls-210 {
        fill: #b9c239;
      }

      .cls-211 {
        fill: #c0bd4a;
      }

      .cls-212 {
        fill: #c0c332;
      }

      .cls-213 {
        fill: #bbbb45;
      }

      .cls-214 {
        fill: #bec332;
      }

      .cls-215 {
        fill: #c0bd46;
      }

      .cls-216 {
        fill: #bec346;
      }

      .cls-217 {
        fill: #c0c15b;
      }

      .cls-218 {
        fill: #bcc13b;
      }

      .cls-219 {
        fill: #bec43f;
      }

      .cls-220 {
        fill: #bcc135;
      }

      .cls-221 {
        fill: #bebe4f;
      }

      .cls-222 {
        fill: #c1bc4e;
      }

      .cls-223 {
        fill: #bdbd4c;
      }

      .cls-224 {
        fill: #769656;
      }

      .cls-225 {
        fill: #bebe4d;
      }

      .cls-226 {
        fill: #babf3c;
      }

      .cls-227 {
        fill: #c2c85b;
      }

      .cls-228 {
        fill: #c5c773;
      }

      .cls-229 {
        fill: #6ba142;
      }

      .cls-230 {
        fill: #7e9d61;
      }

      .cls-231 {
        fill: #829b64;
      }

      .cls-232 {
        fill: #789953;
      }

      .cls-233 {
        fill: #bbc036;
      }

      .cls-234 {
        fill: #719a49;
      }

      .cls-235 {
        fill: #6a8a41;
      }

      .cls-236 {
        fill: #6a8b40;
      }

      .cls-237 {
        fill: #779a4c;
      }

      .cls-238 {
        fill: #728d46;
      }

      .cls-239 {
        fill: #bec050;
      }

      .cls-240 {
        fill: #7e9c5b;
      }

      .cls-241 {
        fill: #709b42;
      }

      .cls-242 {
        fill: #709549;
      }

      .cls-243 {
        fill: #76964c;
      }

      .cls-244 {
        fill: #c2c240;
      }

      .cls-245 {
        fill: #6a864a;
      }

      .cls-246 {
        fill: #799655;
      }

      .cls-247 {
        fill: #799957;
      }

      .cls-248 {
        fill: #758f4d;
      }

      .cls-249 {
        fill: #bec448;
      }

      .cls-250 {
        fill: #bbbf51;
      }

      .cls-251 {
        fill: #6a9a46;
      }

      .cls-252 {
        fill: #bdc24b;
      }

      .cls-253 {
        fill: #709a43;
      }

      .cls-254 {
        fill: #71994a;
      }

      .cls-255 {
        fill: #6b913e;
      }

      .cls-256 {
        fill: #688f3f;
      }

      .cls-257 {
        fill: #c1bd53;
      }

      .cls-258 {
        fill: #c5c140;
      }

      .cls-259 {
        fill: #c0bd4c;
      }

      .cls-260 {
        fill: #beba4f;
      }

      .cls-261 {
        fill: #bfbc52;
      }

      .cls-262 {
        fill: #bfc134;
      }

      .cls-263 {
        fill: #bfbe46;
      }

      .cls-264 {
        fill: #c1bd50;
      }

      .cls-265 {
        fill: #699b49;
      }

      .cls-266 {
        fill: #6e9753;
      }

      .cls-267 {
        fill: #6a9c4a;
      }

      .cls-268 {
        fill: none;
      }
    </style>
  </defs>
  <title>athenahealth_button</title>
  <g>
    <g>
      <path class="cls-1" d="M976.74,30.31l-0.06.08a0.67,0.67,0,0,1-.29.21l-0.06,0c0-.06,0-0.14-0.13-0.09a0.26,0.26,0,0,1-.16,0,0.58,0.58,0,0,0-.64.06l-0.05,0a0.21,0.21,0,0,0-.11.22,0.43,0.43,0,0,1-.06.29,0.25,0.25,0,0,1-.18,0h-0.16a0.23,0.23,0,0,1,.14,0c0.06,0.12,0,.14-0.13.15h-0.17c-0.11,0-.09.09-0.09,0.15s0.08,0,.1.05a0.29,0.29,0,0,1-.06.25,0.28,0.28,0,0,1-.18.12,2,2,0,0,0-.71.21l-0.14.09c-0.1,0-.2,0-0.3.05a1,1,0,0,0-.24,0c-0.07,0-.12,0-0.11.09a0.44,0.44,0,0,1-.11.1,0.53,0.53,0,0,0-.15.08h0a5.57,5.57,0,0,1-.69.13,1,1,0,0,0-.41-0.07l0,0,0,0.06,0,0c0.05,0.05,0,.08,0,0.09a0.24,0.24,0,0,1-.28-0.35,6.08,6.08,0,0,0,0-1,1.93,1.93,0,0,1,0-.24,0.2,0.2,0,0,1,.17-0.16c0.11,0,.1-0.1.11-0.17a2.41,2.41,0,0,1,0-.46,0.24,0.24,0,0,1,.23-0.07,0.2,0.2,0,0,1,.11,0,3.31,3.31,0,0,1,.09.53,7.77,7.77,0,0,0,0-1.64c0-.09.07-0.16,0.07-0.25s0-.1-0.06-0.07a0.43,0.43,0,0,0-.19-0.27,0.18,0.18,0,0,1,0-.13,0.74,0.74,0,0,1,.17-0.33c0.08,0.14.07-.07,0.12,0a1.68,1.68,0,0,1,.39,0c0.11,0,.15,0,0.12-0.14a0.09,0.09,0,0,1,.11-0.1c0.1,0,.16,0,0.15-0.1s0-.21,0-0.31-0.18-.11-0.25-0.18a0.22,0.22,0,0,1,0-.1,1.28,1.28,0,0,1,0-.18,0.91,0.91,0,0,1,.06-0.26h0a0.26,0.26,0,0,1,.11-0.06,0.14,0.14,0,0,1,.11.06c0.07,0.08.08,0,.13,0a2.28,2.28,0,0,1,.46,0c0.1,0,.21,0,0.2-0.13s0-.26,0-0.39a2.16,2.16,0,0,0-.08-0.58c0-.07,0-0.14,0-0.22a0.54,0.54,0,0,1,.14-0.2,0.27,0.27,0,0,1,.17-0.09,0.39,0.39,0,0,1,.24,0,0.13,0.13,0,0,0,.17.15s0.07,0.05.1,0,0-.06,0-0.09a0.59,0.59,0,0,0,0-.36,0.41,0.41,0,0,1,0-.16,0.48,0.48,0,0,1,.1-0.17,0.2,0.2,0,0,1,.14-0.09s0.1,0,.1,0a0.28,0.28,0,0,1,.26-0.16,0.18,0.18,0,0,1,.07.11,0.4,0.4,0,0,1-.29.3c0.12,0,.22-0.07.35-0.07s0.15,0,.14-0.07a0.17,0.17,0,0,0-.14-0.21c-0.07-.15.13-0.17,0.16-0.27l0,0,0.16-.07a1.32,1.32,0,0,0,.2-0.06,0.53,0.53,0,0,1,.39-0.14,0.21,0.21,0,0,1,.07.1,0.12,0.12,0,0,1,0,.09,0.09,0.09,0,0,0,0,0h0a3,3,0,0,1,.45-0.14s0.11,0,.16,0,0-.06,0-0.08l-0.06,0c-0.08-.07-0.27,0-0.26-0.2h0a0.83,0.83,0,0,0,.44-0.19c0.08-.16.32-0.09,0.41-0.24l0.06,0a0.16,0.16,0,0,1,.13,0,0.62,0.62,0,0,0,.08.18,0.25,0.25,0,0,0,.19,0s0,0,0,0,0.12-.19.27-0.18a0.48,0.48,0,0,0,.34-0.1,0.41,0.41,0,0,0-.17-0.1c0-.08,0-0.12.08-0.14a0.25,0.25,0,0,0,.17-0.09l0.06,0h0.17a1.76,1.76,0,0,1,.69-0.12,0.12,0.12,0,0,1,.11.13c-0.06.23,0,.47-0.07,0.7a0.92,0.92,0,0,0,0,.72,2.42,2.42,0,0,0,.11.51,0.26,0.26,0,0,1,.06.2,1.73,1.73,0,0,1-.06.26,0.69,0.69,0,0,0-.16.47,0.43,0.43,0,0,0,.06.27,1.68,1.68,0,0,0-.07.49l0,0.06a1.46,1.46,0,0,1-.2.17,0.17,0.17,0,0,1-.14.08,0.21,0.21,0,0,1-.12-0.15,0.22,0.22,0,0,0-.06-0.11c-0.07.08,0,.19-0.1,0.26a0.09,0.09,0,0,1-.1,0,0.22,0.22,0,0,1-.07-0.17,0.21,0.21,0,0,0,.07.17,1.33,1.33,0,0,0,.16.74c0,0.11-.06.21,0,0.32a2.09,2.09,0,0,1-.07.45,0.4,0.4,0,0,1-.14.27h0l-0.06,0a0.41,0.41,0,0,0-.3.31c-0.07.13-.12,0.29-0.34,0.24a0.13,0.13,0,0,1,0-.1,0.22,0.22,0,0,0,0,.07,0.18,0.18,0,0,1-.06.18,0.39,0.39,0,0,1-.18,0h-0.15c-0.41,0-.45.06-0.34,0.44a0.33,0.33,0,0,1,0,.32,0.15,0.15,0,0,0,.08.22,0.09,0.09,0,0,1,0,.06A1.5,1.5,0,0,1,976.74,30.31Z" transform="translate(-963.62 -17.07)"/>
      <path class="cls-2" d="M965.31,21.65a1,1,0,0,1,.47.19A0.8,0.8,0,0,1,966,22a0.12,0.12,0,0,1-.05.11,0.15,0.15,0,0,0-.09.17,0.37,0.37,0,0,0,.53.14,0.17,0.17,0,0,1,.1,0,0.18,0.18,0,0,1,.11.11,1.16,1.16,0,0,0,.29.51l0.05,0.08a1.72,1.72,0,0,0,.42.09,0.29,0.29,0,0,1,.06.24c0,0.1.05,0.13,0.15,0.1a0.21,0.21,0,0,1,.21.19c0,0.09,0,.14.12,0.14a0.4,0.4,0,0,1,.26,0c0.06,0.08,0,.19.1,0.26a0.91,0.91,0,0,1-.06.27,0.31,0.31,0,0,1,.13,0,0.33,0.33,0,0,0,.18.14c0.07,0,0-.05,0-0.08s0.27-.14.43,0.09a0.28,0.28,0,0,1,0,.21s0,0.07,0,0l0,0a0.16,0.16,0,0,1,.1,0C969.23,25,969,25,969,25.13a0.2,0.2,0,0,0,0,.29,0.18,0.18,0,0,1,0,.12,0.55,0.55,0,0,0,0,.5h0.08a0.49,0.49,0,0,0,0-.31,0.93,0.93,0,0,1,0-.3,0.33,0.33,0,0,1,.12-0.13,0.14,0.14,0,0,1,.11,0,0.11,0.11,0,0,1,0,.05,1.62,1.62,0,0,0,.1.57,2.19,2.19,0,0,1,.16.19h0l0,0.06a0.75,0.75,0,0,0,.08.34,0.17,0.17,0,0,1,0,.12c0,0.05-.08.11,0,0.16a0.21,0.21,0,0,1,.07.06,0.25,0.25,0,0,1,0,.13,0.59,0.59,0,0,1,0,.2,0.28,0.28,0,0,1-.13.11c-0.08,0,0-.08-0.1-0.09s0,0.24.13,0.34l0,0.06a2.6,2.6,0,0,1-.08.69,13,13,0,0,1,0,1.36,0.09,0.09,0,0,1-.1.05c-0.11,0-.07-0.13-0.08-0.21a0.28,0.28,0,0,0-.05-0.25h0c0-.05-0.12,0-0.15-0.09a0.18,0.18,0,0,1,0-.1,0.25,0.25,0,0,0-.2,0h-0.24a0.2,0.2,0,0,1-.21-0.08c0-.08.08-0.1,0.12-0.15a0.27,0.27,0,0,0,0-.15c-0.08-.09-0.24-0.16-0.07-0.3a3.08,3.08,0,0,0-.38,0,2.17,2.17,0,0,0-.74,0,0.86,0.86,0,0,1-.31-0.05,0.33,0.33,0,0,1-.06-0.37,1.22,1.22,0,0,0,0-.23c0-.13-0.17-0.08-0.25-0.09a0.18,0.18,0,0,1,.13,0,0.16,0.16,0,0,1-.09.2l-0.23.1a0.53,0.53,0,0,1-.5-0.26s0.14-.07,0-0.13a0.38,0.38,0,0,0-.18-0.49,0.2,0.2,0,0,0-.23,0c0,0.07.21,0.06,0.13,0.19a0.64,0.64,0,0,1-.28.06,0.16,0.16,0,0,1-.13-0.05,0.67,0.67,0,0,0-.29-0.35l0-.06a0.22,0.22,0,0,1,.13-0.25,0.14,0.14,0,0,1,.1,0,0.2,0.2,0,0,1,.12.17s0,0,0,.05a0.7,0.7,0,0,0,0-.46,0.22,0.22,0,0,0-.18-0.14H965l-0.06,0c-0.08-.07,0-0.13,0-0.2a0.5,0.5,0,0,0,0-.11,0.33,0.33,0,0,1,0,.09c-0.06.06-.1,0-0.14,0a1.08,1.08,0,0,1-.14-0.2,0.66,0.66,0,0,0-.15-0.28,0.21,0.21,0,0,1,0-.06c0-.14.09-0.18,0.23-0.14a0.63,0.63,0,0,1,.12.26s0,0.09.08,0.06a0.19,0.19,0,0,0,0-.26l0-.05a0.13,0.13,0,0,1,0-.09s0-.09,0-0.11a0.19,0.19,0,0,1-.08-0.05,0.09,0.09,0,0,1,0-.09l0.08-.05s0-.05,0-0.06h-0.41c-0.09-.06-0.17.13-0.26,0a0.26,0.26,0,0,1,0-.11c0-.45,0-0.89,0-1.34a0.82,0.82,0,0,0-.08-0.42,0.78,0.78,0,0,1,0-.28l0-.06a0.37,0.37,0,0,0,.06-0.28,1.67,1.67,0,0,1,0-.38l0-.06a3.09,3.09,0,0,0,.3-0.1,4,4,0,0,0,.46,0s0,0,0,0a0.08,0.08,0,0,0,0,0,0.11,0.11,0,0,1,0-.06A0.29,0.29,0,0,1,965.31,21.65Z" transform="translate(-963.62 -17.07)"/>
      <path class="cls-2" d="M968.92,22.59a0.5,0.5,0,0,1-.11-0.31,0.3,0.3,0,0,1,0-.28,1.29,1.29,0,0,0,.05-0.42c0-.07,0,0,0-0.05a1.61,1.61,0,0,1,0,.45c-0.1.08-.11,0-0.17-0.06v0a0.33,0.33,0,0,0,0-.2,0.25,0.25,0,0,1,.07-0.21l0.11-.09a0.76,0.76,0,0,0,0-.63,0.14,0.14,0,0,1,0-.09,3.88,3.88,0,0,0,0-.91l0-.06a0.24,0.24,0,0,0,0-.33,0.27,0.27,0,0,1,0-.13,1.15,1.15,0,0,1,.13-0.27,1.93,1.93,0,0,0,.41-0.18,0.23,0.23,0,0,1,.3.08,0.86,0.86,0,0,1,0-.74c-0.06.11-.14,0.21-0.21,0.32l-0.07,0a0.17,0.17,0,0,1-.17-0.11,0.14,0.14,0,0,1,0-.1,3.27,3.27,0,0,0,.44-0.71l0-.12,0-.05a0.19,0.19,0,0,1,.12-0.05,0.15,0.15,0,0,1,.09,0c0.12,0.2.24,0.09,0.35,0a0.12,0.12,0,0,1,.1,0l0,0a0.72,0.72,0,0,0,.08.12l0,0.05a0.21,0.21,0,0,0,.14.2l0,0a0.19,0.19,0,0,0,.1.13,0.12,0.12,0,0,1,.06.05h0a0.22,0.22,0,0,1,.13.24l0,0a0.29,0.29,0,0,0-.17,0h-0.09a0.08,0.08,0,0,0-.1,0,0.18,0.18,0,0,0,0,.23c0,0.12-.16.25,0,0.37a0.51,0.51,0,0,0,.29,0c0.07,0,.07,0,0.06-0.09a1,1,0,0,1,0-.24,0.4,0.4,0,0,1,0-.26,0,0,0,0,1,.06,0l0.06,0.17a0.33,0.33,0,0,1,0,.15c0,0.15.08,0,.07,0h0a0.71,0.71,0,0,0,.11.17l0,0.06c0,0.11.08,0.2,0.08,0.31s0,0.09-.06.14,0.05,0,.07,0a0.81,0.81,0,0,1,.19.38,0.73,0.73,0,0,1,.1.42s0.08,0,.08,0a0.24,0.24,0,0,1,0,.1c0,0.2,0,.4,0,0.6s0,0.29-.26.27a0.43,0.43,0,0,1-.08-0.34,2.2,2.2,0,0,0-.06-0.77s0,0,0,0,0-.06,0-0.09,0,0.06,0,.09a0.52,0.52,0,0,1,0,.32,2.19,2.19,0,0,0-.06.8c0,0.23,0,.45,0,0.68a3,3,0,0,0,0,.69c0,0.13.13,0,.16,0.06a0.32,0.32,0,0,1-.13.36s-0.12-.07-0.06,0a0.19,0.19,0,0,1,0,.06c0,0.1,0,.2,0,0.29a0.16,0.16,0,0,1-.06.12l-0.09.06a0.2,0.2,0,0,1-.07-0.11c-0.06,0,0,0,0,.05a0.42,0.42,0,0,1,0,.14,0.13,0.13,0,0,1-.06.13,0.17,0.17,0,0,1-.1,0,0.17,0.17,0,0,1-.1,0,0.54,0.54,0,0,0-.15-0.31,0.51,0.51,0,0,1-.21.66,0.55,0.55,0,0,1-.2,0,1.41,1.41,0,0,0-.22-0.06,0.13,0.13,0,0,0-.14.11,0.11,0.11,0,0,1-.07.06l-0.06,0,0,0c-0.07-.09-0.15-0.18-0.21-0.27a0.52,0.52,0,0,1-.11-0.24,0.3,0.3,0,0,1,0-.19c0.12,0,.21,0,0.16-0.17a0.32,0.32,0,0,0-.06-0.2,0.12,0.12,0,0,1,0-.09,0.3,0.3,0,0,0,0-.37,0.19,0.19,0,0,0-.16.12,0.12,0.12,0,0,1-.1,0,0.16,0.16,0,0,1-.06-0.07c0-.08-0.11-0.06-0.18,0S969,22.67,968.92,22.59Z" transform="translate(-963.62 -17.07)"/>
      <path class="cls-3" d="M970,27.36v0.17a1.82,1.82,0,0,0,.13.47,1,1,0,0,1,0,.2q0,2.18,0,4.37a1,1,0,0,1,0,.29c-0.08.09-.14,0.06-0.17,0a0.73,0.73,0,0,0-.13-0.21,0.12,0.12,0,0,1,0-.11l0.05-.06a0.56,0.56,0,0,0,0-.29q0-1.58,0-3.16a2.41,2.41,0,0,0,0-.71l0-.07c0-.23,0-0.46,0-0.69a0.33,0.33,0,0,1,0-.25C970,27.21,969.94,27.35,970,27.36Z" transform="translate(-963.62 -17.07)"/>
      <path class="cls-4" d="M970,32.89a0.32,0.32,0,0,0,0-.28q0-2.23,0-4.46c0.14,0.07,0,.2.09,0.28V29q0,1.76,0,3.52c0,0.13,0,.27,0,0.4a0.11,0.11,0,0,1-.1.07S970,32.93,970,32.89Z" transform="translate(-963.62 -17.07)"/>
      <path class="cls-5" d="M968.42,28.34a0.54,0.54,0,0,1,.47-0.06c-0.14.12-.16,0.24,0,0.33a0.18,0.18,0,0,1-.17,0,0,0,0,0,0,0,0,0.05,0.05,0,0,1,0,.05,0.24,0.24,0,0,1-.12.1,2.17,2.17,0,0,1-.64-0.1,1.29,1.29,0,0,1-.23-0.1,0.6,0.6,0,0,0-.15-0.08h0a0.08,0.08,0,0,1,0-.11l0.06,0a1,1,0,0,0,.3-0.09A0.87,0.87,0,0,1,968.42,28.34Z" transform="translate(-963.62 -17.07)"/>
      <path class="cls-6" d="M967.34,22.73l0.1,0.08c0.07,0.09.17,0.15,0.25,0.23s0.09,0.09,0,.15a0.28,0.28,0,0,1-.18,0,0.7,0.7,0,0,1-.25-0.16,0.47,0.47,0,0,1-.3-0.11,0.45,0.45,0,0,1-.37-0.48c0.22-.15.32,0,0.44,0.13S967.26,22.67,967.34,22.73Z" transform="translate(-963.62 -17.07)"/>
      <path class="cls-7" d="M969.49,29.24c0.06,0,.1,0,0.1.05s0,0.26,0,.39v0c0,0.81,0,1.61,0,2.42,0,0.1,0,.21,0,0.31l0,0.07a2.13,2.13,0,0,0,.08.43,0.07,0.07,0,0,1-.05,0,0.16,0.16,0,0,1-.16-0.11h0a0.33,0.33,0,0,1,0-.35V29.24Z" transform="translate(-963.62 -17.07)"/>
      <path class="cls-8" d="M971.45,31.11a0.15,0.15,0,0,0-.2.17c0,0.35,0,.71,0,1.06,0,0.07,0,.17-0.09.19a1.6,1.6,0,0,1-.05-0.61q0-.18,0-0.36c0-.3.07-0.59,0.09-0.88a0.23,0.23,0,0,1,.05-0.11l0-.1A0.54,0.54,0,0,1,971.45,31.11Z" transform="translate(-963.62 -17.07)"/>
      <path class="cls-9" d="M971.15,31.9v0.64a0.21,0.21,0,0,0,.07.2c0.09,0.08.16,0.09,0.22,0a0.49,0.49,0,0,1,.28-0.07,0.27,0.27,0,0,1,.2,0c0.26,0.05.48-.15,0.74-0.08a5.49,5.49,0,0,1-1.13.31,0.41,0.41,0,0,1-.12.07c-0.26.07-.33,0-0.34-0.22s0-.45,0-0.68C971.08,32,971.07,31.91,971.15,31.9Z" transform="translate(-963.62 -17.07)"/>
      <path class="cls-10" d="M972.72,26.83l-0.09,0a0.11,0.11,0,0,1,0-.14L973,26a0.11,0.11,0,0,1,.12-0.06,0.09,0.09,0,0,1,0,0,1.12,1.12,0,0,0,0,.3c0.05,0.11-.07.16-0.15,0.22a0.53,0.53,0,0,0-.28.22,0.26,0.26,0,0,1,0,.09Z" transform="translate(-963.62 -17.07)"/>
      <path class="cls-11" d="M977.61,28.83a0.36,0.36,0,0,0,.3-0.3c0.06-.14.1-0.34,0.36-0.27a0.19,0.19,0,0,1-.06.17,0.74,0.74,0,0,0-.21.34,0.35,0.35,0,0,1-.08.12,0.45,0.45,0,0,0-.18.23l-0.06,0a0.1,0.1,0,0,1-.1,0,0.24,0.24,0,0,1,0-.17A0.15,0.15,0,0,1,977.61,28.83Z" transform="translate(-963.62 -17.07)"/>
      <path class="cls-12" d="M963.64,21.56V21.3c0.06-.1.14,0,0.21,0a0.78,0.78,0,0,1,.3.2,0.18,0.18,0,0,1,0,.16,0.36,0.36,0,0,1-.14.12,0.35,0.35,0,0,1-.26,0A0.89,0.89,0,0,1,963.64,21.56Z" transform="translate(-963.62 -17.07)"/>
      <path class="cls-13" d="M971.75,20.85V20.22a0.22,0.22,0,0,1,.13.19,0.49,0.49,0,0,1,0,.07,5.92,5.92,0,0,1,0,1.23,0.23,0.23,0,0,1,0,.12l0,0.12c-0.05,0,0,.17-0.11.12a0.42,0.42,0,0,1,0-.25c0-.24.12-0.46,0.11-0.7A0.57,0.57,0,0,0,971.75,20.85Z" transform="translate(-963.62 -17.07)"/>
      <path class="cls-14" d="M970.28,24.06l0.2,0a0.11,0.11,0,0,1,0,.11,3,3,0,0,0,0,.31,0.11,0.11,0,0,1-.08.09,0.54,0.54,0,0,0-.35,0,0.16,0.16,0,0,1-.1-0.17c-0.06-.08-0.11-0.17.07-0.17A0.84,0.84,0,0,0,970.28,24.06Z" transform="translate(-963.62 -17.07)"/>
      <path class="cls-15" d="M966,22a0.25,0.25,0,0,1-.2-0.18c0.25,0,.42.24,0.67,0.27a0.35,0.35,0,0,1,.22.16,0.12,0.12,0,0,1-.09.12l-0.06,0a0.29,0.29,0,0,1-.16,0c-0.06,0-.14-0.06-0.2-0.1a0.11,0.11,0,0,1,0-.09C966.17,22.08,966,22.08,966,22Z" transform="translate(-963.62 -17.07)"/>
      <path class="cls-16" d="M964.12,21.65V21.48a0.13,0.13,0,0,0,.11-0.15,0.27,0.27,0,0,1,.14,0,1.67,1.67,0,0,1,.54.15l0.16,0.09a0.17,0.17,0,0,1-.11.06c-0.16,0-.33,0-0.49,0a0.39,0.39,0,0,0-.24,0A0.11,0.11,0,0,1,964.12,21.65Z" transform="translate(-963.62 -17.07)"/>
      <path class="cls-17" d="M971.45,31.11a1.51,1.51,0,0,0-.15-0.63V30.39a0.16,0.16,0,0,1,.13,0,0.14,0.14,0,0,1,.11.08q0,0.26,0,.52C971.55,31,971.55,31.1,971.45,31.11Z" transform="translate(-963.62 -17.07)"/>
      <path class="cls-18" d="M976.23,23.43c0,0.14.25,0.05,0.3,0.19a0.69,0.69,0,0,1-.59.18,0.09,0.09,0,0,1,0-.09c0-.18.17-0.17,0.24-0.26h0.09Z" transform="translate(-963.62 -17.07)"/>
      <path class="cls-19" d="M969.69,26.11a0.39,0.39,0,0,1-.29-0.39,1,1,0,0,1,0-.38,1,1,0,0,1,.28.64v0.13Z" transform="translate(-963.62 -17.07)"/>
      <path class="cls-20" d="M966.37,27.63a0.8,0.8,0,0,0,.49.27,0.14,0.14,0,0,1,.11.17,0.09,0.09,0,0,1-.09,0c0-.05-0.09,0-0.12,0a0.46,0.46,0,0,0-.19-0.1,0.47,0.47,0,0,1-.2-0.17l-0.13-.1a0.08,0.08,0,0,1-.08-0.08,0.11,0.11,0,0,1,.1-0.06A0.14,0.14,0,0,1,966.37,27.63Z" transform="translate(-963.62 -17.07)"/>
      <path class="cls-21" d="M967.74,23.17a3.79,3.79,0,0,1-.29-0.37,1.61,1.61,0,0,1,.49.41,1.4,1.4,0,0,1,.22.26c0,0.12-.12.11-0.21,0.09A0.43,0.43,0,0,1,967.74,23.17Z" transform="translate(-963.62 -17.07)"/>
      <path class="cls-22" d="M979.07,26.25v0.13h0a1.05,1.05,0,0,1-.09.27,0.6,0.6,0,0,0-.1.31s0,0.15-.09.16a0.09,0.09,0,0,1-.07,0,0.17,0.17,0,0,1,0-.1,1.43,1.43,0,0,1,.06-0.41c0.08-.06.07,0,0.11,0.05a0.24,0.24,0,0,1,0-.24C978.89,26.27,979,26.3,979.07,26.25Z" transform="translate(-963.62 -17.07)"/>
      <path class="cls-23" d="M973.21,22.28a1.21,1.21,0,0,1-.09-0.8s0-.14.12-0.08a0.29,0.29,0,0,1,0,.17,1.17,1.17,0,0,0,.08.58,0.29,0.29,0,0,1,0,.07,0.21,0.21,0,0,1,0,.13C973.22,22.42,973.25,22.3,973.21,22.28Z" transform="translate(-963.62 -17.07)"/>
      <path class="cls-24" d="M969.89,17.38h-0.1a0.05,0.05,0,0,1,0-.08l0.19-.18a0.16,0.16,0,0,1,.17,0,0.28,0.28,0,0,1,.12.12h0a0.07,0.07,0,0,1,0,.09,0.47,0.47,0,0,1-.12.12,0.34,0.34,0,0,1-.15,0A0.22,0.22,0,0,1,969.89,17.38Z" transform="translate(-963.62 -17.07)"/>
      <path class="cls-25" d="M968.62,28.79a0.09,0.09,0,0,1,.1-0.09,0.42,0.42,0,0,1,.2.09c0,0.11-.12.07-0.19,0.14a1.43,1.43,0,0,0,.48,0,0.07,0.07,0,0,1,0,.09l-0.06,0a0.44,0.44,0,0,1-.25,0,0.66,0.66,0,0,1-.29-0.1C968.55,28.9,968.42,28.85,968.62,28.79Z" transform="translate(-963.62 -17.07)"/>
      <path class="cls-26" d="M976.14,23.44a2,2,0,0,1-.24.26,3.18,3.18,0,0,0-.39.18s-0.07,0-.09,0A2.55,2.55,0,0,1,976.14,23.44Z" transform="translate(-963.62 -17.07)"/>
      <path class="cls-27" d="M974,25.13c-0.07,0-.11.15-0.2,0a0.06,0.06,0,0,1-.06-0.06,0.15,0.15,0,0,1,.05-0.07l0.21-.17a0,0,0,0,0,0,0,1.47,1.47,0,0,1,.28-0.16v0.19A0.87,0.87,0,0,1,974,25.13Z" transform="translate(-963.62 -17.07)"/>
      <path class="cls-28" d="M964.61,25.75V25.67a0,0,0,0,1,0,0l0.2,0.24a0.63,0.63,0,0,1,.11-0.26,1.24,1.24,0,0,1,0,.46s0,0.05-.05.05a0.47,0.47,0,0,1-.19-0.28Z" transform="translate(-963.62 -17.07)"/>
      <path class="cls-29" d="M968.62,28.79c-0.11.06,0,.12,0,0.17A2.28,2.28,0,0,1,968,28.7,2,2,0,0,1,968.62,28.79Z" transform="translate(-963.62 -17.07)"/>
      <path class="cls-30" d="M975,21.07h0a0.31,0.31,0,0,1,.15.22,0.08,0.08,0,0,1,0,.11c-0.28,0-.37-0.06-0.31-0.32A0.09,0.09,0,0,1,975,21.07Z" transform="translate(-963.62 -17.07)"/>
      <path class="cls-31" d="M972,27.81V27.72l0.18-.32,0,0s0.09,0.08.14,0.13A0.24,0.24,0,0,1,972,27.81Z" transform="translate(-963.62 -17.07)"/>
      <path class="cls-32" d="M970.08,24.51a0.21,0.21,0,0,0,.08,0c0.11-.15.2-0.12,0.26,0s0,0.06,0,.09C970.2,24.8,970.16,24.6,970.08,24.51Z" transform="translate(-963.62 -17.07)"/>
      <path class="cls-33" d="M976,30.94a0.58,0.58,0,0,0-.2.16,0.21,0.21,0,0,1-.21.13,0.15,0.15,0,0,1-.1,0,0.54,0.54,0,0,1,.49-0.37,0.08,0.08,0,0,1,0,.06A0.09,0.09,0,0,1,976,30.94Z" transform="translate(-963.62 -17.07)"/>
      <path class="cls-34" d="M969.09,23L969,22.9l0-.09a1.06,1.06,0,0,1-.08-0.14V22.59a0.32,0.32,0,0,0,.21,0c0.08,0,.16,0,0.17.08A1.74,1.74,0,0,0,969.09,23Z" transform="translate(-963.62 -17.07)"/>
      <path class="cls-35" d="M970.28,24.06a0.19,0.19,0,0,1-.21.16c-0.19,0-.06.08-0.09,0.12l-0.08,0c-0.06,0-.09-0.06-0.06-0.13l0,0a0.89,0.89,0,0,0,.2-0.18A0.28,0.28,0,0,1,970.28,24.06Z" transform="translate(-963.62 -17.07)"/>
      <path class="cls-36" d="M972.52,26.82v0.27a0.45,0.45,0,0,0-.08.18,1.45,1.45,0,0,1-.11.14,0.1,0.1,0,0,1-.1,0v0A1.74,1.74,0,0,1,972.52,26.82Z" transform="translate(-963.62 -17.07)"/>
      <path class="cls-37" d="M966.85,28.08H967c0.23-.11.28,0.05,0.35,0.19a0.08,0.08,0,0,1,0,.07l0,0a0.63,0.63,0,0,1-.27-0.1A0.2,0.2,0,0,1,966.85,28.08Z" transform="translate(-963.62 -17.07)"/>
      <path class="cls-38" d="M964.95,21.57h0.11a0.27,0.27,0,0,1,.25.09c-0.1,0-.26-0.07-0.31.09a0.24,0.24,0,0,1-.13,0c-0.07,0-.16,0-0.17-0.07s0.08-.09.14-0.11A0.32,0.32,0,0,0,964.95,21.57Z" transform="translate(-963.62 -17.07)"/>
      <path class="cls-39" d="M963.93,23.84a0.78,0.78,0,0,0-.1-0.32,0.3,0.3,0,0,0-.05-0.21,0.09,0.09,0,0,1,.08-0.07,0.72,0.72,0,0,1,.19.62C964,23.92,964,23.89,963.93,23.84Z" transform="translate(-963.62 -17.07)"/>
      <path class="cls-40" d="M974.77,31.72l-0.18.06a0.39,0.39,0,0,1,.09-0.23,0.25,0.25,0,0,1,.15-0.07,0.19,0.19,0,0,1,.19.07C975,31.66,974.82,31.62,974.77,31.72Z" transform="translate(-963.62 -17.07)"/>
      <path class="cls-41" d="M979.08,22.37h0.19a0.07,0.07,0,0,1,0,.09,0.1,0.1,0,0,1-.1,0,4.76,4.76,0,0,1-.7.08l0,0A1.53,1.53,0,0,1,979.08,22.37Z" transform="translate(-963.62 -17.07)"/>
      <path class="cls-42" d="M963.72,22.55a3.46,3.46,0,0,1-.1-0.72l0-.13a0.08,0.08,0,0,1,.08.07,2.13,2.13,0,0,1,.08.58C963.78,22.42,963.88,22.53,963.72,22.55Z" transform="translate(-963.62 -17.07)"/>
      <path class="cls-43" d="M971.55,19.7a1.16,1.16,0,0,1-.15-0.36,0.06,0.06,0,0,1,0-.06,0.08,0.08,0,0,1,.08-0.05c0.08,0,.06.08,0.09,0.12a0.08,0.08,0,0,0,0,0c0.06,0.07.07,0.16,0.12,0.23a0.1,0.1,0,0,1,0,.09A0.09,0.09,0,0,1,971.55,19.7Z" transform="translate(-963.62 -17.07)"/>
      <path class="cls-44" d="M976.52,23.25l0.27-.16h0a0.38,0.38,0,0,1,.29-0.09,0.24,0.24,0,0,1-.26.18c-0.07,0-.13,0-0.13.09A0.15,0.15,0,0,1,976.52,23.25Z" transform="translate(-963.62 -17.07)"/>
      <path class="cls-45" d="M975.16,22.28v0a0,0,0,0,0,0,0l-0.23.2a0.06,0.06,0,0,1-.09,0,0.16,0.16,0,0,1,0-.13C974.94,22.32,975,22.12,975.16,22.28Z" transform="translate(-963.62 -17.07)"/>
      <path class="cls-46" d="M965.18,26.57l-0.08-.05v0a0.2,0.2,0,0,1,0-.17,0.11,0.11,0,0,1,.06,0,0.18,0.18,0,0,1,.19,0,0.23,0.23,0,0,1,0,.23A0.11,0.11,0,0,1,965.18,26.57Z" transform="translate(-963.62 -17.07)"/>
      <path class="cls-47" d="M972.82,32.44a0.09,0.09,0,0,1,.1-0.09l0.29-.1h0.07c0.06,0,.14,0,0.17,0a3.88,3.88,0,0,1-.62.21,0,0,0,0,1,0,0v0Z" transform="translate(-963.62 -17.07)"/>
      <path class="cls-48" d="M976.52,23.25h0.21a0.48,0.48,0,0,1-.5.17,0,0,0,0,1,0,0,0.15,0.15,0,0,1,.09,0h0a0.19,0.19,0,0,1,0,0l0.11-.09h0.08Z" transform="translate(-963.62 -17.07)"/>
      <path class="cls-49" d="M971.55,19.7h0.09a0.41,0.41,0,0,1,.11.27V20a0.06,0.06,0,0,1,0,.09,0.16,0.16,0,0,1-.08,0A2.12,2.12,0,0,0,971.55,19.7Z" transform="translate(-963.62 -17.07)"/>
      <path class="cls-50" d="M975.57,31.2l-0.16.13a0.51,0.51,0,0,1-.24.12,0.11,0.11,0,0,1,0-.09,0.3,0.3,0,0,1,.33-0.17h0.11Z" transform="translate(-963.62 -17.07)"/>
      <path class="cls-51" d="M965.48,27l-0.09-.18c0.15,0.08.34,0.13,0.3,0.34-0.07,0-.08,0-0.09,0Z" transform="translate(-963.62 -17.07)"/>
      <path class="cls-52" d="M971.45,30.39h-0.14a0.6,0.6,0,0,1,0-.27c0.05,0,0-.17.11-0.12a0.24,0.24,0,0,1,0,.14A0.29,0.29,0,0,1,971.45,30.39Z" transform="translate(-963.62 -17.07)"/>
      <path class="cls-53" d="M975.16,31.37v0.08a0.23,0.23,0,0,1-.14.1l-0.2,0A0.22,0.22,0,0,1,975.16,31.37Z" transform="translate(-963.62 -17.07)"/>
      <path class="cls-54" d="M973.15,25.93V25.84h0a0.14,0.14,0,0,1,.16,0l0,0a0.15,0.15,0,0,1,.06.2,0.13,0.13,0,0,1-.13,0c-0.12,0-.09-0.11-0.13-0.16Z" transform="translate(-963.62 -17.07)"/>
      <path class="cls-55" d="M967.34,22.73a0.28,0.28,0,0,1-.29-0.09,0.07,0.07,0,0,1,0-.1,0.1,0.1,0,0,1,.11,0A0.49,0.49,0,0,1,967.34,22.73Z" transform="translate(-963.62 -17.07)"/>
      <path class="cls-56" d="M963.83,21.3a0.25,0.25,0,0,0-.19,0c0-.21.19,0,0.27-0.08a0.34,0.34,0,0,1,.22.07,0.08,0.08,0,0,1,0,0A0.33,0.33,0,0,1,963.83,21.3Z" transform="translate(-963.62 -17.07)"/>
      <path class="cls-57" d="M968.81,22a0.6,0.6,0,0,1,0,.27,0.65,0.65,0,0,1-.14-0.36,0.24,0.24,0,0,1,.15.09h0Z" transform="translate(-963.62 -17.07)"/>
      <path class="cls-58" d="M969,18.44a2.52,2.52,0,0,1,.19-0.27,0.06,0.06,0,0,1,0,.1v0.09a0.25,0.25,0,0,1,0,.09c0,0.07,0,.22-0.19.08Z" transform="translate(-963.62 -17.07)"/>
      <path class="cls-2" d="M967.45,28.46c-0.07,0-.17,0-0.17-0.11h0a0.41,0.41,0,0,1,.3,0l0.05,0a0.07,0.07,0,0,1,0,.08h0A0.2,0.2,0,0,1,967.45,28.46Z" transform="translate(-963.62 -17.07)"/>
      <path class="cls-59" d="M973.6,32.22a0.13,0.13,0,0,0,0,0l-0.15,0a0.37,0.37,0,0,0-.19,0s0,0,0,0h0a0.67,0.67,0,0,1,.34,0,0,0,0,0,1,0,0v0Z" transform="translate(-963.62 -17.07)"/>
      <path class="cls-60" d="M970.07,27.85V28c-0.19-.13-0.05-0.31-0.09-0.46l0,0A2,2,0,0,1,970.07,27.85Z" transform="translate(-963.62 -17.07)"/>
      <path class="cls-61" d="M970,27.36l-0.1-.09a0.06,0.06,0,0,1,0-.09V27c0.12,0,0,.11.09,0.14v0.26Z" transform="translate(-963.62 -17.07)"/>
      <path class="cls-62" d="M975.16,21.39v-0.1h0a0.74,0.74,0,0,1,.06.22,0.79,0.79,0,0,1,0,.2c-0.16,0-.11-0.09-0.13-0.16A0.23,0.23,0,0,1,975.16,21.39Z" transform="translate(-963.62 -17.07)"/>
      <path class="cls-63" d="M969,18.53c0.17,0.09.08-.12,0.17-0.12s0.07,0.13,0,.19a0.14,0.14,0,0,1-.22,0h0Z" transform="translate(-963.62 -17.07)"/>
      <path class="cls-64" d="M968.13,23.35l0,0.09s0,0,0,0a0.31,0.31,0,0,1-.19-0.23A0.47,0.47,0,0,1,968.13,23.35Z" transform="translate(-963.62 -17.07)"/>
      <path class="cls-65" d="M971.17,18.61a0.23,0.23,0,0,0-.08.11,0.37,0.37,0,0,1,0-.28A0.2,0.2,0,0,1,971.17,18.61Z" transform="translate(-963.62 -17.07)"/>
      <path class="cls-66" d="M968.9,29.06h0.3a0.05,0.05,0,0,1,0,.08A0.32,0.32,0,0,1,968.9,29.06Z" transform="translate(-963.62 -17.07)"/>
      <path class="cls-67" d="M971.11,23.57a0.13,0.13,0,0,1-.06-0.14c0-.08,0-0.13.1-0.13v0.19A0.07,0.07,0,0,1,971.11,23.57Z" transform="translate(-963.62 -17.07)"/>
      <path class="cls-68" d="M971.45,30l-0.09.13V30l0.09-.24A0.18,0.18,0,0,1,971.45,30Z" transform="translate(-963.62 -17.07)"/>
      <path class="cls-69" d="M971,23.92l-0.09.05a0.18,0.18,0,0,1,0-.27H971a0.19,0.19,0,0,1,0,.14v0.08Z" transform="translate(-963.62 -17.07)"/>
      <path class="cls-70" d="M963.68,21.74l0,0V21.56s0.08-.11.09,0,0,0.11,0,.17l0,0Z" transform="translate(-963.62 -17.07)"/>
      <path class="cls-61" d="M970.07,27.85a0.5,0.5,0,0,1,0-.3,0.52,0.52,0,0,1,.06.25Z" transform="translate(-963.62 -17.07)"/>
      <path class="cls-57" d="M968.62,21.83V21.7s0,0,0,0a0.1,0.1,0,0,1,0,.18Z" transform="translate(-963.62 -17.07)"/>
      <path class="cls-71" d="M967.45,28.46a0.31,0.31,0,0,1,.19,0l-0.05.09A0.13,0.13,0,0,1,967.45,28.46Z" transform="translate(-963.62 -17.07)"/>
      <path class="cls-72" d="M971,23.84c-0.08,0,0-.09,0-0.14h0.09A0.13,0.13,0,0,1,971,23.84Z" transform="translate(-963.62 -17.07)"/>
      <path class="cls-73" d="M969.2,29.14V29.06h0a0.15,0.15,0,0,1,.19,0l0,0.08a0.08,0.08,0,0,1-.11,0h0Z" transform="translate(-963.62 -17.07)"/>
      <path class="cls-74" d="M973.8,22.72h-0.1a0.08,0.08,0,0,1-.09,0h0a0.36,0.36,0,0,1,0,0,0.15,0.15,0,0,1,.1,0,0.16,0.16,0,0,1,.1,0A0.07,0.07,0,0,1,973.8,22.72Z" transform="translate(-963.62 -17.07)"/>
      <path class="cls-75" d="M965,26.38V26.29a0.08,0.08,0,0,1,.1,0v0.18Z" transform="translate(-963.62 -17.07)"/>
      <path class="cls-66" d="M969.24,29.15h0.11a0.24,0.24,0,0,1,.14.1A0.37,0.37,0,0,1,969.24,29.15Z" transform="translate(-963.62 -17.07)"/>
      <path class="cls-76" d="M976.32,23.34h0.15a0.29,0.29,0,0,1-.23.05C976.24,23.34,976.28,23.34,976.32,23.34Z" transform="translate(-963.62 -17.07)"/>
      <path class="cls-77" d="M972.62,26.64v0.14a0.11,0.11,0,0,1-.11,0A0.3,0.3,0,0,1,972.62,26.64Z" transform="translate(-963.62 -17.07)"/>
      <path class="cls-78" d="M972.82,32.44V32.5a0.16,0.16,0,0,1-.15,0A0.13,0.13,0,0,1,972.82,32.44Z" transform="translate(-963.62 -17.07)"/>
      <path class="cls-79" d="M964.12,21.29h0.23a0.08,0.08,0,0,1,0,0h-0.15c-0.05,0-.09,0-0.1,0v0Z" transform="translate(-963.62 -17.07)"/>
      <path class="cls-80" d="M975.41,23.84a0.1,0.1,0,0,1,.09,0,0.27,0.27,0,0,1-.19,0Z" transform="translate(-963.62 -17.07)"/>
      <path class="cls-65" d="M971.26,18.71V18.8a0.19,0.19,0,0,1-.09-0.19A0.16,0.16,0,0,1,971.26,18.71Z" transform="translate(-963.62 -17.07)"/>
      <path class="cls-71" d="M967.58,28.53c0.07,0,.14,0,0.15.08A0.16,0.16,0,0,1,967.58,28.53Z" transform="translate(-963.62 -17.07)"/>
      <path class="cls-81" d="M975.16,31.37a0.51,0.51,0,0,0-.34.14,0.16,0.16,0,0,1-.15,0c-0.17,0-.18-0.09-0.19-0.18s0.1-.08.17-0.09,0.25,0.08.3-.09a0.06,0.06,0,0,1,0-.09h0.2a0.29,0.29,0,0,0,.13-0.27,0.34,0.34,0,0,1,.07-0.27,2.58,2.58,0,0,1,.68-0.09,0.26,0.26,0,0,0,.12-0.06,0.2,0.2,0,0,1,.23,0c0.06,0-.07.09-0.06,0.15a0.55,0.55,0,0,1-.39.27,0.25,0.25,0,0,0-.29.18,1,1,0,0,0-.2.18A0.93,0.93,0,0,0,975.16,31.37Z" transform="translate(-963.62 -17.07)"/>
      <path class="cls-82" d="M973.17,25.94c0.06,0,.07.18,0.18,0.11s-0.07-.13,0-0.21a0.13,0.13,0,0,1,0-.18h0a0.43,0.43,0,0,1,.2,0,1.79,1.79,0,0,1,.1.58,0.57,0.57,0,0,0-.08.1c-0.19.22-.19,0.22,0.08,0.34,0,0.13,0,.19-0.18.18h-0.6l0,0s0-.08-0.08-0.07c0-.18.15-0.19,0.25-0.26s0.28-.1.15-0.29A0.46,0.46,0,0,1,973.17,25.94Z" transform="translate(-963.62 -17.07)"/>
      <path class="cls-83" d="M971.94,29.23a0.56,0.56,0,0,1,.1.4c0,0.42,0,.84,0,1.27,0,0.07.06,0.19-.08,0.19s-0.11-.12-0.11-0.21,0-.33,0-0.49a1.54,1.54,0,0,0,0-.4,0.54,0.54,0,0,0-.07-0.33,1.24,1.24,0,0,1-.11-0.7,1.91,1.91,0,0,1,0-.27h0c0.25,0,.2.14,0.2,0.27A0.21,0.21,0,0,1,971.94,29.23Z" transform="translate(-963.62 -17.07)"/>
      <path class="cls-81" d="M979.18,22.46h0.1a0.16,0.16,0,0,1,.24.09c0.05,0.25,0,.51.06,0.77v0.3a0.23,0.23,0,0,0,0,.22c0,0.08,0,.17-0.13.16l-0.05,0a1.25,1.25,0,0,1,0-.41,0.26,0.26,0,0,0-.11-0.25l0,0a2.67,2.67,0,0,1,0-.75A0.14,0.14,0,0,0,979.18,22.46Z" transform="translate(-963.62 -17.07)"/>
      <path class="cls-84" d="M976.92,30c-0.19,0-.25-0.09-0.14-0.24a0.5,0.5,0,0,0,0-.29c0-.21.14-0.35,0.43-0.43a1.05,1.05,0,0,1,.27.17,0.2,0.2,0,0,1,0,.17h0c-0.07.05-.12,0.14-0.22,0.06s0,0,0,.09a0.19,0.19,0,0,1,0,.15,0.32,0.32,0,0,0-.09.16h0A0.45,0.45,0,0,0,976.92,30Z" transform="translate(-963.62 -17.07)"/>
      <path class="cls-85" d="M979.37,24c0.18-.07.08-0.21,0.09-0.32s0-.1.1,0a10.43,10.43,0,0,1-.48,2.6,0.79,0.79,0,0,1,.09-0.55,0.35,0.35,0,0,1,0-.24c0-.05-0.09-0.2.11-0.17,0,0,0,0,0,0a0.2,0.2,0,0,1,0-.27,0.35,0.35,0,0,1,.05-0.27,0.49,0.49,0,0,0,0-.29A0.58,0.58,0,0,1,979.37,24Z" transform="translate(-963.62 -17.07)"/>
      <path class="cls-81" d="M972.33,27.4c0-.06,0-0.13.1-0.13a0.08,0.08,0,0,1,.1,0v0.09a0.73,0.73,0,0,1,.14.21,0.45,0.45,0,0,1,0,.41,0.09,0.09,0,0,0-.1.09,0.36,0.36,0,0,1-.27.07c-0.21,0-.25-0.05-0.22-0.26V27.81c0.23,0,.3-0.09.29-0.27A0.09,0.09,0,0,1,972.33,27.4Z" transform="translate(-963.62 -17.07)"/>
      <path class="cls-82" d="M978,22.81c0.1,0,.26-0.07.28,0.08s-0.17.1-.25,0.17a0.41,0.41,0,0,1-.19,0s-0.11,0-.1,0c0.08,0.27-.16.1-0.23,0.15s-0.15,0-.19-0.09-0.08-.11,0-0.18l0.06,0a2.53,2.53,0,0,1,.64-0.14h0Z" transform="translate(-963.62 -17.07)"/>
      <path class="cls-86" d="M977.27,29.1a0.7,0.7,0,0,0-.44.4c-0.21-.12-0.09-0.31-0.08-0.46S976.91,29,977,29h0.31C977.37,29,977.33,29.07,977.27,29.1Z" transform="translate(-963.62 -17.07)"/>
      <path class="cls-87" d="M971.45,30.39V30.13a0.41,0.41,0,0,0,0-.28,0.28,0.28,0,0,1,0-.17,0.19,0.19,0,0,1,.19,0,0.12,0.12,0,0,1,.06.05,0.71,0.71,0,0,1,0,.27,0.6,0.6,0,0,1-.07.42,0.23,0.23,0,0,0-.2,0Z" transform="translate(-963.62 -17.07)"/>
      <path class="cls-86" d="M978.73,27v0.09a0.39,0.39,0,0,1,0,.17,0.07,0.07,0,0,1-.1,0,0.09,0.09,0,0,0-.06,0,0.69,0.69,0,0,1-.15-0.76h0.1a0.09,0.09,0,0,1,.1,0,0.1,0.1,0,0,1,0,.12A0.36,0.36,0,0,0,978.73,27Z" transform="translate(-963.62 -17.07)"/>
      <path class="cls-88" d="M975,24.6a0.48,0.48,0,0,1-.53,0,0.43,0.43,0,0,0,.43-0.28c0-.08,0-0.07.1,0,0.29-.09.17,0.12,0.2,0.22S975.09,24.66,975,24.6Z" transform="translate(-963.62 -17.07)"/>
      <path class="cls-89" d="M978.73,27a0.26,0.26,0,0,1-.2-0.35,0.33,0.33,0,0,0,0-.19c-0.06-.1,0-0.12.1-0.13l0.1,0.13a0.06,0.06,0,0,1,0,.09A0.88,0.88,0,0,1,978.73,27Z" transform="translate(-963.62 -17.07)"/>
      <path class="cls-90" d="M974,25.13a0.52,0.52,0,0,1,.29-0.27,0.28,0.28,0,0,1,0,.36q0.06,0.14-.1.09c-0.08,0-.11.13-0.21,0S974,25.21,974,25.13Z" transform="translate(-963.62 -17.07)"/>
      <path class="cls-91" d="M972,27.88c0,0.16.06,0.22,0.24,0.2h0.26a0.11,0.11,0,0,1,.09.12c0,0.07-.08.06-0.14,0.06H972a0.35,0.35,0,0,1,0-.22A0.23,0.23,0,0,1,972,27.88Z" transform="translate(-963.62 -17.07)"/>
      <path class="cls-91" d="M976,30.48a0.37,0.37,0,0,1-.37.09h-0.31c0-.13,0-0.2.19-0.18A0.7,0.7,0,0,1,976,30.48Z" transform="translate(-963.62 -17.07)"/>
      <path class="cls-92" d="M973.6,26.65c-0.1,0-.25.06-0.28-0.09a0.36,0.36,0,0,1,.28-0.36v0.45Z" transform="translate(-963.62 -17.07)"/>
      <path class="cls-91" d="M975.36,30.57c0,0.12,0,.25,0,0.37s-0.06.18-.2,0.17,0-.25,0-0.37S975.23,30.56,975.36,30.57Z" transform="translate(-963.62 -17.07)"/>
      <path class="cls-91" d="M972.62,28V27.54a0.15,0.15,0,0,1,.2,0c0,0.13,0,.27,0,0.4s0,0.11-.06.13A0.12,0.12,0,0,1,972.62,28Z" transform="translate(-963.62 -17.07)"/>
      <path class="cls-93" d="M975.95,23.8a0.7,0.7,0,0,0,.38-0.14,0.5,0.5,0,0,1,.2,0h0c0.07,0.11-.05.12-0.1,0.18a1.42,1.42,0,0,1-.49.18,0.06,0.06,0,0,1,0-.09V23.8Z" transform="translate(-963.62 -17.07)"/>
      <path class="cls-94" d="M979.37,24v0.44a0.36,0.36,0,0,1-.1.09,0.67,0.67,0,0,1-.1-0.54l0,0a0.15,0.15,0,0,1,.17,0h0Z" transform="translate(-963.62 -17.07)"/>
      <path class="cls-95" d="M971.74,30.39V29.95a0.14,0.14,0,0,1,.2,0c0,0.13.1,0.3-.1,0.4h-0.1Z" transform="translate(-963.62 -17.07)"/>
      <path class="cls-96" d="M973.29,32.09h-0.36a0.09,0.09,0,0,1-.1-0.09,0.08,0.08,0,0,1,.09-0.08A0.3,0.3,0,0,1,973.29,32.09Z" transform="translate(-963.62 -17.07)"/>
      <path class="cls-97" d="M977.27,29.1l0-.13h0.2a0.07,0.07,0,0,1,.1,0v0.18c0,0.07,0,.1-0.1.09A0.21,0.21,0,0,1,977.27,29.1Z" transform="translate(-963.62 -17.07)"/>
      <path class="cls-98" d="M979.17,24a0.09,0.09,0,0,1-.1-0.1q0-.25,0-0.51a0.09,0.09,0,0,1,.1-0.1h0a0.78,0.78,0,0,1,0,.71h0Z" transform="translate(-963.62 -17.07)"/>
      <path class="cls-99" d="M978,22.64l0.24,0a0.11,0.11,0,0,1-.13.13c-0.07,0-.15,0-0.16.09h0a0.42,0.42,0,0,1-.4,0Z" transform="translate(-963.62 -17.07)"/>
      <path class="cls-96" d="M974.19,32a0.35,0.35,0,0,0-.2.09h-0.09a0.22,0.22,0,0,1-.21,0,1.29,1.29,0,0,1,.73-0.22l0,0.05A0.3,0.3,0,0,0,974.19,32Z" transform="translate(-963.62 -17.07)"/>
      <path class="cls-100" d="M978.69,26.34a0.22,0.22,0,0,0-.1.13h-0.1c0-.07,0-0.13,0-0.2s0-.14.08-0.15,0.11,0.08.11,0.15S978.69,26.31,978.69,26.34Z" transform="translate(-963.62 -17.07)"/>
      <path class="cls-101" d="M979.27,25a1,1,0,0,1-.1.45,0.07,0.07,0,0,1-.1,0,1.14,1.14,0,0,1,.11-0.45h0.08Z" transform="translate(-963.62 -17.07)"/>
      <path class="cls-102" d="M972.82,27.54h-0.2c-0.13,0-.09-0.11-0.1-0.18S972.85,27.3,972.82,27.54Z" transform="translate(-963.62 -17.07)"/>
      <path class="cls-103" d="M978.6,27.55v0.08a1.9,1.9,0,0,1-.2.37,0.33,0.33,0,0,1,.06-0.3c0.06,0,0-.11,0-0.16A0.11,0.11,0,0,1,978.6,27.55Z" transform="translate(-963.62 -17.07)"/>
      <path class="cls-104" d="M977.61,29h-0.1a1.64,1.64,0,0,1,0-.47,0.59,0.59,0,0,1,.06.34V29Z" transform="translate(-963.62 -17.07)"/>
      <path class="cls-105" d="M976.44,23.8l0.1-.18c0.08,0,.21,0,0.18.1S976.53,23.77,976.44,23.8Z" transform="translate(-963.62 -17.07)"/>
      <path class="cls-106" d="M975,24.29a0.11,0.11,0,0,0-.1,0,0.1,0.1,0,0,1-.05-0.1l0.06-.08c0.12,0,.16-0.15.28-0.15A0.8,0.8,0,0,1,975,24.29Z" transform="translate(-963.62 -17.07)"/>
      <path class="cls-107" d="M971.94,32.62a0.25,0.25,0,0,0-.15.09c-0.11-.06-0.23,0-0.34,0l0,0a0.84,0.84,0,0,1,.22,0,0.39,0.39,0,0,1-.22,0A0.41,0.41,0,0,1,971.94,32.62Z" transform="translate(-963.62 -17.07)"/>
      <path class="cls-108" d="M975.95,30.84a2.82,2.82,0,0,0,.39-0.27h0.06v0.08a0.17,0.17,0,0,0-.14.09,0.66,0.66,0,0,1-.29.15V30.84Z" transform="translate(-963.62 -17.07)"/>
      <path class="cls-109" d="M978.6,27.55h-0.16a0.75,0.75,0,0,1,.1-0.31s0,0,.05,0a0.34,0.34,0,0,1,0,.32h0Z" transform="translate(-963.62 -17.07)"/>
      <path class="cls-110" d="M975,31.11v0.09h-0.36V31.13A1.14,1.14,0,0,1,975,31.11Z" transform="translate(-963.62 -17.07)"/>
      <path class="cls-111" d="M978.39,26.47c-0.18-.09-0.08-0.21,0-0.33A0.57,0.57,0,0,1,978.39,26.47Z" transform="translate(-963.62 -17.07)"/>
      <path class="cls-59" d="M973.21,32.27a0.26,0.26,0,0,1-.3.09,0.11,0.11,0,0,1,.1-0.13A0.18,0.18,0,0,1,973.21,32.27Z" transform="translate(-963.62 -17.07)"/>
      <path class="cls-102" d="M971.94,29.23V29a0.17,0.17,0,0,1,.09,0C972,29,972.13,29.17,971.94,29.23Z" transform="translate(-963.62 -17.07)"/>
      <path class="cls-112" d="M973.5,25.62a0.14,0.14,0,0,1-.2,0,0.65,0.65,0,0,1,.19-0.23A0.22,0.22,0,0,1,973.5,25.62Z" transform="translate(-963.62 -17.07)"/>
      <path class="cls-113" d="M976.92,30c0-.11,0-0.25.21-0.17l0,0.07a1.06,1.06,0,0,1-.19.14v0Z" transform="translate(-963.62 -17.07)"/>
      <path class="cls-114" d="M973.7,32.09h0.21a0.68,0.68,0,0,1-.3.13v0A0.09,0.09,0,0,1,973.7,32.09Z" transform="translate(-963.62 -17.07)"/>
      <path class="cls-115" d="M977.89,28.33l-0.11.07a0,0,0,0,1-.06,0,0.08,0.08,0,0,1,.09-0.1S977.87,28.26,977.89,28.33Z" transform="translate(-963.62 -17.07)"/>
      <path class="cls-116" d="M975,24.6l0.2-.09c0,0.06,0,.14-0.06.17A0.09,0.09,0,0,1,975,24.6Z" transform="translate(-963.62 -17.07)"/>
      <path class="cls-117" d="M979.08,25.4h0.1v0.27C979,25.62,979.11,25.49,979.08,25.4Z" transform="translate(-963.62 -17.07)"/>
      <path class="cls-118" d="M974.19,25.31a0.09,0.09,0,0,0,.1-0.09c0.12,0,.13.1,0.06,0.16A0.09,0.09,0,0,1,974.19,25.31Z" transform="translate(-963.62 -17.07)"/>
      <path class="cls-119" d="M972,28a0.32,0.32,0,0,1,0,.22l-0.08.09,0-.1A0.39,0.39,0,0,1,972,28Z" transform="translate(-963.62 -17.07)"/>
      <path class="cls-120" d="M978.78,26.56V26.47l0.1-.09v0.27A0.3,0.3,0,0,1,978.78,26.56Z" transform="translate(-963.62 -17.07)"/>
      <path class="cls-101" d="M979.27,24.51a0.09,0.09,0,0,1,.1-0.09,0.34,0.34,0,0,1,0,.27A0.28,0.28,0,0,0,979.27,24.51Z" transform="translate(-963.62 -17.07)"/>
      <path class="cls-121" d="M975.95,23.88V24a0.24,0.24,0,0,1-.17,0A0.17,0.17,0,0,1,975.95,23.88Z" transform="translate(-963.62 -17.07)"/>
      <path class="cls-10" d="M972.53,27.27h-0.1c0-.07,0-0.16.1-0.18v0.18Z" transform="translate(-963.62 -17.07)"/>
      <path class="cls-122" d="M977.32,23.17c0.08,0,.18,0,0.19.09S977.33,23.29,977.32,23.17Z" transform="translate(-963.62 -17.07)"/>
      <path class="cls-123" d="M971.45,32.67a0.6,0.6,0,0,1,.34,0h-0.34v0Z" transform="translate(-963.62 -17.07)"/>
      <path class="cls-124" d="M972.82,26.83c0,0.05,0,.12-0.07.15a0.19,0.19,0,0,1,0-.15h0a0.07,0.07,0,0,1,.1,0h0Z" transform="translate(-963.62 -17.07)"/>
      <path class="cls-125" d="M978.32,27.39a0.07,0.07,0,0,1,.06.07,0.06,0.06,0,0,1,0,0,0.06,0.06,0,0,1-.05-0.06A0.14,0.14,0,0,1,978.32,27.39Z" transform="translate(-963.62 -17.07)"/>
      <path class="cls-126" d="M974.48,24.47c0-.05.06,0,0.1,0l0.05,0.06A0.11,0.11,0,0,1,974.48,24.47Z" transform="translate(-963.62 -17.07)"/>
      <path class="cls-96" d="M973.21,32.27l-0.2,0c0.08-.1.16,0,0.24,0v0h0Z" transform="translate(-963.62 -17.07)"/>
      <path class="cls-44" d="M977.32,23h-0.2l0.11-.08h0.09A0,0,0,0,1,977.32,23Z" transform="translate(-963.62 -17.07)"/>
      <path class="cls-127" d="M971.5,32.58h0.19v0H971.5S971.5,32.59,971.5,32.58Z" transform="translate(-963.62 -17.07)"/>
      <path class="cls-63" d="M969.69,33a0.57,0.57,0,0,1-.1-0.44,1,1,0,0,0,0-.33c0-.74,0-1.48,0-2.22a0.37,0.37,0,0,1,.07-0.3V28.25a0.09,0.09,0,0,1,.13,0,0.38,0.38,0,0,1,0,.22q0,1.95,0,3.89a0.54,0.54,0,0,1,0,.15v0.09a0.46,0.46,0,0,1-.08.38A0.08,0.08,0,0,1,969.69,33Z" transform="translate(-963.62 -17.07)"/>
      <path class="cls-128" d="M969.69,29.68c0,0.88,0,1.76,0,2.64,0,0.08.05,0.19-.1,0.22h0a0.27,0.27,0,0,1,0-.17q0-1.25,0-2.51a0.27,0.27,0,0,1,0-.17h0.1Z" transform="translate(-963.62 -17.07)"/>
      <path class="cls-129" d="M964.95,21.57a0.61,0.61,0,0,1-.23.12,0.37,0.37,0,0,0,.28.06h0a0,0,0,0,1,0,0h0a0.6,0.6,0,0,1-.49,0c-0.08.08-.21,0-0.29,0.09h0a0.94,0.94,0,0,0,0,.46,0.36,0.36,0,0,1,0,.25h0a0.17,0.17,0,0,1-.11,0,0.15,0.15,0,0,1-.11,0,0.26,0.26,0,0,1,0-.25A0.4,0.4,0,0,0,964,22a0.31,0.31,0,0,1,.07-0.24,0.09,0.09,0,0,1,.1-0.09h0.1c0-.06.15,0,0.2-0.09h0.54Z" transform="translate(-963.62 -17.07)"/>
      <path class="cls-130" d="M967.74,23.17a3.26,3.26,0,0,1,.2.36c0.08,0.07.25,0,.24,0.2a0.12,0.12,0,0,1-.06.1,0.38,0.38,0,0,1-.38,0,0.25,0.25,0,0,0-.2-0.18,0.36,0.36,0,0,1,0-.45h0.2Z" transform="translate(-963.62 -17.07)"/>
      <path class="cls-130" d="M968.52,24.69q-0.23,0-.2-0.18c-0.09-.11,0-0.19.06-0.27a0.21,0.21,0,0,1,.34,0,0.51,0.51,0,0,0,.2.16,0.34,0.34,0,0,1,.14.22,0.15,0.15,0,0,1,0,.09c-0.06,0-.09,0-0.11,0s-0.07-.09-0.11-0.12-0.2-.12-0.28,0A0.06,0.06,0,0,1,968.52,24.69Z" transform="translate(-963.62 -17.07)"/>
      <path class="cls-131" d="M966.07,27.18c0-.15-0.18,0-0.26-0.11,0.11-.19.22-0.21,0.38-0.08s0.32,0.29.16,0.55a0.09,0.09,0,0,1-.1,0,2.14,2.14,0,0,1-.11-0.25A0.47,0.47,0,0,1,966.07,27.18Z" transform="translate(-963.62 -17.07)"/>
      <path class="cls-132" d="M967.54,23.17v0.45c-0.13.11-.2,0.11-0.2-0.08s0-.19,0-0.28-0.34,0-.49-0.09V23.08l0,0a3,3,0,0,0,.46-0.06C967.49,23,967.4,23.18,967.54,23.17Z" transform="translate(-963.62 -17.07)"/>
      <path class="cls-133" d="M964.11,24.51c0-.13-0.09-0.23-0.08-0.36a2.11,2.11,0,0,0,0-.7,0.29,0.29,0,0,1,0-.19,0.09,0.09,0,0,1,.12,0V24.7c-0.09,0-.05-0.07-0.09-0.1V24.51Z" transform="translate(-963.62 -17.07)"/>
      <path class="cls-134" d="M967.3,28.3a0.35,0.35,0,0,0-.34-0.22l-0.1-.18c0-.12.12-0.08,0.2-0.09a0.27,0.27,0,0,1,.29.09,0.45,0.45,0,0,0,0,.36A0.05,0.05,0,0,1,967.3,28.3Z" transform="translate(-963.62 -17.07)"/>
      <path class="cls-135" d="M966.66,22.46a0.5,0.5,0,0,0,.39.45,1,1,0,0,0-.19.18h0a0.55,0.55,0,0,1-.3-0.45,0.38,0.38,0,0,0-.09-0.17,0.39,0.39,0,0,1,.1-0.09h0C966.67,22.33,966.7,22.36,966.66,22.46Z" transform="translate(-963.62 -17.07)"/>
      <path class="cls-136" d="M964.5,25.4a5.07,5.07,0,0,1-.28-0.54,0,0,0,0,0,0,0s0,0,0,0,0.08-.13.19-0.09a0.74,0.74,0,0,1,.05.35,0.19,0.19,0,0,1,.1-0.1l0.06,0a1.6,1.6,0,0,0,.1.17,0.12,0.12,0,0,1,0,.05,0.08,0.08,0,0,1,0,0A0.15,0.15,0,0,0,964.5,25.4Z" transform="translate(-963.62 -17.07)"/>
      <path class="cls-137" d="M966.07,27.18a0.09,0.09,0,0,1,.1.09c0,0.1.13,0.22-.06,0.27H966a0.68,0.68,0,0,0-.25-0.22V27.24A0.39,0.39,0,0,1,966.07,27.18Z" transform="translate(-963.62 -17.07)"/>
      <path class="cls-49" d="M968.42,24.24a0.42,0.42,0,0,0-.1.27c-0.11,0-.08.11-0.14,0.17a0.37,0.37,0,0,1,0-.44,0.25,0.25,0,0,1,0-.23,0.12,0.12,0,0,1,0-.05,0.12,0.12,0,0,1,.1,0c0.05,0.06.07,0.13,0.11,0.19A0.08,0.08,0,0,1,968.42,24.24Z" transform="translate(-963.62 -17.07)"/>
      <path class="cls-138" d="M964.22,23.26h-0.1a0.09,0.09,0,0,1-.11,0,1.16,1.16,0,0,1-.11-0.69l0,0H964c0.1,0.09,0,.23.1,0.31A0.5,0.5,0,0,1,964.22,23.26Z" transform="translate(-963.62 -17.07)"/>
      <path class="cls-132" d="M969.1,26.11H969a0.76,0.76,0,0,1,0-.58V25.4a0.13,0.13,0,0,1,.1,0,0.13,0.13,0,0,1,.1,0v0.36C969.1,25.86,969.21,26,969.1,26.11Z" transform="translate(-963.62 -17.07)"/>
      <path class="cls-128" d="M969.79,28.25h-0.1a3.08,3.08,0,0,0,.1-0.71,0.07,0.07,0,0,1,.1,0v0.71A0.07,0.07,0,0,1,969.79,28.25Z" transform="translate(-963.62 -17.07)"/>
      <path class="cls-139" d="M967.74,23.8h0.39c0.05,0,.08,0,0.1,0l0,0.05a0.08,0.08,0,0,1,0,.08h0a0.07,0.07,0,0,1-.1,0h-0.31C967.62,24,967.62,23.91,967.74,23.8Z" transform="translate(-963.62 -17.07)"/>
      <path class="cls-140" d="M965.68,26.74l-0.1-.18c-0.06-.12-0.13-0.24.1-0.27a0.39,0.39,0,0,1,0,.53A0.06,0.06,0,0,1,965.68,26.74Z" transform="translate(-963.62 -17.07)"/>
      <path class="cls-141" d="M964.61,25a0.37,0.37,0,0,0-.16.17,0.91,0.91,0,0,1,0-.44h0.29a0.14,0.14,0,0,1,0,.16A0.22,0.22,0,0,1,964.61,25Z" transform="translate(-963.62 -17.07)"/>
      <path class="cls-142" d="M966.37,22.46a0.22,0.22,0,0,1-.33.07c-0.11,0-.31-0.05-0.26-0.25a0.17,0.17,0,0,1,.16,0,0.42,0.42,0,0,1,.13.09l0.05,0A1.39,1.39,0,0,1,966.37,22.46Z" transform="translate(-963.62 -17.07)"/>
      <path class="cls-143" d="M968.42,28.34h-0.49a0.26,0.26,0,0,1-.29,0h0s0,0,0,0h0A1,1,0,0,1,968.42,28.34Z" transform="translate(-963.62 -17.07)"/>
      <path class="cls-144" d="M965.68,26.29c-0.18,0-.06.18-0.1,0.27h-0.1l0,0c0-.06-0.07-0.12-0.1-0.18a0.43,0.43,0,0,1,.12-0.24C965.6,26.13,965.7,26.16,965.68,26.29Z" transform="translate(-963.62 -17.07)"/>
      <path class="cls-145" d="M967.34,27.9a1,1,0,0,1-.29-0.09l0.1-.18a0.15,0.15,0,0,1,.2,0V27.9Z" transform="translate(-963.62 -17.07)"/>
      <path class="cls-146" d="M965.49,26.11a0.43,0.43,0,0,1-.1.27,0.13,0.13,0,0,1,0,.16c-0.06,0-.09,0-0.12,0V26.29a0.11,0.11,0,0,1,0-.18A0.29,0.29,0,0,0,965.49,26.11Z" transform="translate(-963.62 -17.07)"/>
      <path class="cls-147" d="M969,25.53v0.58A0.45,0.45,0,0,1,969,25.53Z" transform="translate(-963.62 -17.07)"/>
      <path class="cls-148" d="M964.7,25.22v0a0.17,0.17,0,0,1,.2,0h0a0.23,0.23,0,0,1,0,.26,0.09,0.09,0,0,1-.12,0C964.63,25.44,964.74,25.31,964.7,25.22Z" transform="translate(-963.62 -17.07)"/>
      <path class="cls-149" d="M967.34,27.63h-0.2a1.21,1.21,0,0,1-.36,0A0.51,0.51,0,0,1,967.34,27.63Z" transform="translate(-963.62 -17.07)"/>
      <path class="cls-150" d="M969.19,24.79l0,0.15,0,0.05c0,0.08,0,.18-0.07.26a0.1,0.1,0,0,1-.1,0,0.09,0.09,0,0,1,0-.15,0.36,0.36,0,0,1,.1-0.27,0.1,0.1,0,0,1,0-.13C969.16,24.7,969.18,24.74,969.19,24.79Z" transform="translate(-963.62 -17.07)"/>
      <path class="cls-151" d="M964.9,25.22a0.35,0.35,0,0,1-.2,0v0a0.13,0.13,0,0,1,0-.18,0.09,0.09,0,0,1,.11,0h0.1a0.12,0.12,0,0,1,0,.18v0.09Z" transform="translate(-963.62 -17.07)"/>
      <path class="cls-152" d="M966,22a0.3,0.3,0,0,1,.25.1c0.06,0.06,0,.06-0.06.08a0.2,0.2,0,0,1-.16,0c-0.08,0-.2,0-0.09-0.14Z" transform="translate(-963.62 -17.07)"/>
      <path class="cls-51" d="M965.29,26.51l0.1,0a0.07,0.07,0,0,1,.1,0h0a0.45,0.45,0,0,0-.1.27,0.62,0.62,0,0,1-.21-0.26A0.15,0.15,0,0,0,965.29,26.51Z" transform="translate(-963.62 -17.07)"/>
      <path class="cls-153" d="M966.37,22.46c-0.1,0-.24.07-0.29-0.09a0.26,0.26,0,0,1,.29,0h0.2a0.09,0.09,0,0,1-.1.09h-0.1Z" transform="translate(-963.62 -17.07)"/>
      <path class="cls-154" d="M966.86,23.17a0.59,0.59,0,0,1,.49.09A0.59,0.59,0,0,1,966.86,23.17Z" transform="translate(-963.62 -17.07)"/>
      <path class="cls-155" d="M964.12,22.28c0.05-.15-0.11-0.33.1-0.45v0.45A0.07,0.07,0,0,1,964.12,22.28Z" transform="translate(-963.62 -17.07)"/>
      <path class="cls-156" d="M968.91,28.79c-0.08,0-.18,0-0.2-0.09s-0.13-.07,0-0.09h0.19v0.18Z" transform="translate(-963.62 -17.07)"/>
      <path class="cls-147" d="M969,25.13a0.12,0.12,0,0,0,.05.13c0.06,0,.1.07,0,0.13H969Q968.78,25.27,969,25.13Z" transform="translate(-963.62 -17.07)"/>
      <path class="cls-157" d="M969.1,26.11c0-.12-0.1-0.27.1-0.36C969.16,25.87,969.3,26,969.1,26.11Z" transform="translate(-963.62 -17.07)"/>
      <path class="cls-158" d="M969.89,27.54h-0.1a0.21,0.21,0,0,1,0-.27,0.08,0.08,0,0,1,.1-0.09v0.36Z" transform="translate(-963.62 -17.07)"/>
      <path class="cls-159" d="M964.9,25.49V25.22a0.19,0.19,0,0,1,0,.36A0.06,0.06,0,0,1,964.9,25.49Z" transform="translate(-963.62 -17.07)"/>
      <path class="cls-160" d="M964.71,24.87V24.69h0.19a0.12,0.12,0,0,1,0,.18h-0.1A0.07,0.07,0,0,1,964.71,24.87Z" transform="translate(-963.62 -17.07)"/>
      <path class="cls-161" d="M969.79,27.27v0.27c-0.2-.08,0-0.24-0.08-0.36Z" transform="translate(-963.62 -17.07)"/>
      <path class="cls-71" d="M967.64,28.3v0a1.29,1.29,0,0,1-.34,0v0l0,0A0.55,0.55,0,0,1,967.64,28.3Z" transform="translate(-963.62 -17.07)"/>
      <path class="cls-162" d="M965.93,22.1c0.05,0-.07.11,0,0.09a0.06,0.06,0,0,1,0,.09h-0.2C965.78,22.18,965.77,22.09,965.93,22.1Z" transform="translate(-963.62 -17.07)"/>
      <path class="cls-163" d="M964.12,22.86c-0.18-.07-0.07-0.21-0.1-0.31h0.1v0.31Z" transform="translate(-963.62 -17.07)"/>
      <path class="cls-164" d="M969.8,26.46l0.09,0.23a0.1,0.1,0,0,1,0,.13h-0.11a0.13,0.13,0,0,1,0-.18V26.52A0,0,0,0,1,969.8,26.46Z" transform="translate(-963.62 -17.07)"/>
      <path class="cls-165" d="M969.1,25.4l0-.13,0,0a0.08,0.08,0,0,1,.09,0,0.2,0.2,0,0,1,.11.11,0.09,0.09,0,0,1-.1.09h-0.1Z" transform="translate(-963.62 -17.07)"/>
      <path class="cls-166" d="M964.12,22.28h0.1c0,0.09.08,0.22-.1,0.27V22.28Z" transform="translate(-963.62 -17.07)"/>
      <path class="cls-167" d="M969.4,29.06H969.2V29a0.71,0.71,0,0,1,.22,0C969.53,29,969.46,29,969.4,29.06Z" transform="translate(-963.62 -17.07)"/>
      <path class="cls-168" d="M964.22,21.83c0-.16.2-0.06,0.29-0.09C964.46,21.91,964.31,21.8,964.22,21.83Z" transform="translate(-963.62 -17.07)"/>
      <path class="cls-169" d="M969.8,26.46v0.06a0.36,0.36,0,0,1-.08-0.37l0.09,0.15v0.16Z" transform="translate(-963.62 -17.07)"/>
      <path class="cls-170" d="M968.13,24h0.1v0.27C968,24.2,968.16,24.06,968.13,24Z" transform="translate(-963.62 -17.07)"/>
      <path class="cls-171" d="M968.91,24.69l0.1,0a0.09,0.09,0,0,1,0,.13L969,25h0V24.69Z" transform="translate(-963.62 -17.07)"/>
      <path class="cls-136" d="M964.66,25.67h0a0.44,0.44,0,0,1-.11-0.26A0.24,0.24,0,0,1,964.66,25.67Z" transform="translate(-963.62 -17.07)"/>
      <path class="cls-132" d="M969.3,25.31a0.09,0.09,0,0,1-.1-0.09,0.14,0.14,0,0,1,.1-0.06,0.11,0.11,0,0,1,.1.06h0v0.09H969.3Z" transform="translate(-963.62 -17.07)"/>
      <path class="cls-172" d="M969,24.86V24.63a0.11,0.11,0,0,1,.1,0,0,0,0,0,1,0,.05v0.14H969Z" transform="translate(-963.62 -17.07)"/>
      <path class="cls-173" d="M964.9,25.13V25A0.09,0.09,0,1,1,964.9,25.13Z" transform="translate(-963.62 -17.07)"/>
      <path class="cls-174" d="M968.52,24.69V24.6a0.23,0.23,0,0,1,.17,0A0.18,0.18,0,0,1,968.52,24.69Z" transform="translate(-963.62 -17.07)"/>
      <path class="cls-175" d="M964.9,24.87V24.69A0.09,0.09,0,1,1,964.9,24.87Z" transform="translate(-963.62 -17.07)"/>
      <path class="cls-176" d="M965.1,26.29H965a0.14,0.14,0,0,1,0-.18h0.1a0.14,0.14,0,0,1,0,.09,0.13,0.13,0,0,1,0,.09h0Z" transform="translate(-963.62 -17.07)"/>
      <path class="cls-177" d="M965.1,26.2V26.11h0.19V26.2A0.15,0.15,0,0,1,965.1,26.2Z" transform="translate(-963.62 -17.07)"/>
      <path class="cls-178" d="M965,21.79v0l0.16,0a0.1,0.1,0,0,1,0,.05A0.12,0.12,0,0,1,965,21.79Z" transform="translate(-963.62 -17.07)"/>
      <path class="cls-179" d="M964.71,24.87h0.1V25h-0.1a0.07,0.07,0,0,1-.1,0h0A0.09,0.09,0,0,1,964.71,24.87Z" transform="translate(-963.62 -17.07)"/>
      <path class="cls-180" d="M969.79,26.65v0.18C969.69,26.77,969.62,26.71,969.79,26.65Z" transform="translate(-963.62 -17.07)"/>
      <path class="cls-181" d="M966.27,27.54h0.1s0.07,0,.06,0a0.16,0.16,0,0,1-.06.05,0.11,0.11,0,0,1-.1,0,0,0,0,0,1,0,0v0Z" transform="translate(-963.62 -17.07)"/>
      <path class="cls-182" d="M965,26.11v0.18a0.15,0.15,0,0,1-.1-0.14l0.05,0h0Z" transform="translate(-963.62 -17.07)"/>
      <path class="cls-183" d="M965.68,26.74v0.09s-0.08,0-.09,0S965.63,26.74,965.68,26.74Z" transform="translate(-963.62 -17.07)"/>
      <path class="cls-28" d="M964.9,25.49s0,0.06,0,.09-0.15,0-.1-0.09h0.1Z" transform="translate(-963.62 -17.07)"/>
      <path class="cls-184" d="M968.81,19.69a0.76,0.76,0,0,0,.08.51,0.14,0.14,0,0,1,0,.15,0.58,0.58,0,0,0-.08.42,1,1,0,0,1,0,.67,0.1,0.1,0,0,1-.1,0,0.18,0.18,0,0,1-.06-0.13,0.84,0.84,0,0,1-.16-0.52,0.24,0.24,0,0,1,0-.08,0.27,0.27,0,0,0,.12-0.27c0-.21,0-0.41,0-0.62S968.65,19.65,968.81,19.69Z" transform="translate(-963.62 -17.07)"/>
      <path class="cls-185" d="M968.81,19.69c-0.12,0-.1.1-0.1,0.17,0,0.24,0,.48,0,0.73a0.14,0.14,0,0,1-.19.17,1.67,1.67,0,0,1-.05-0.64,0.67,0.67,0,0,1,0-.23,0.66,0.66,0,0,0,.12-0.34,0,0,0,0,1,0,0,2.23,2.23,0,0,0,.09-0.27h0a0.08,0.08,0,0,1,.1,0v0.13a0.27,0.27,0,0,1,0,.31h0Z" transform="translate(-963.62 -17.07)"/>
      <path class="cls-179" d="M969.4,18.45a0.69,0.69,0,0,1,.27-0.41,1.35,1.35,0,0,1-.06.29,0.45,0.45,0,0,0,0,.4,0.15,0.15,0,0,1,0,.23c-0.11.06-.12,0-0.16-0.11a0.1,0.1,0,0,0-.18,0,0.41,0.41,0,0,1-.39.13,0.08,0.08,0,0,1,0-.09c0.11-.12.25-0.21,0.35-0.33a0.39,0.39,0,0,0,.16,0C969.46,18.56,969.4,18.5,969.4,18.45Z" transform="translate(-963.62 -17.07)"/>
      <path class="cls-186" d="M971.35,20.32V20a0.07,0.07,0,0,1,.1,0,0.74,0.74,0,0,1,.1.52c0,0.21,0,.42,0,0.64l0,0a0.18,0.18,0,0,1-.19,0,0.15,0.15,0,0,1,0-.07A2.19,2.19,0,0,1,971.35,20.32Z" transform="translate(-963.62 -17.07)"/>
      <path class="cls-157" d="M971.75,20.85a0.64,0.64,0,0,1,.06.63,1.21,1.21,0,0,0-.06.35,0.16,0.16,0,0,1-.21,0,0.85,0.85,0,0,1,0-.7h0C971.81,21.15,971.73,21,971.75,20.85Z" transform="translate(-963.62 -17.07)"/>
      <path class="cls-72" d="M970.86,23.71V24h0a0.62,0.62,0,0,0-.1.13l0,0a0.13,0.13,0,0,1-.16,0,0.14,0.14,0,0,1-.08,0V24a2,2,0,0,0,.28-0.43s-0.08-.1-0.12-0.15,0-.11,0-0.14,0.08,0,.11.05A0.51,0.51,0,0,1,970.86,23.71Z" transform="translate(-963.62 -17.07)"/>
      <path class="cls-187" d="M970.91,18.27h0v0.31a1,1,0,0,1,0,.31,0.35,0.35,0,0,1-.34.09c-0.14-.2,0-0.32.15-0.45S970.81,18.33,970.91,18.27Z" transform="translate(-963.62 -17.07)"/>
      <path class="cls-188" d="M971.55,21.83h0.19v0.27h0a0.63,0.63,0,0,0-.08.34,0.19,0.19,0,0,1-.17.1s-0.1.13-.15,0a0.26,0.26,0,0,1,0-.24,0.83,0.83,0,0,0,.16-0.16,0.87,0.87,0,0,1,0-.29Z" transform="translate(-963.62 -17.07)"/>
      <path class="cls-189" d="M969.09,23v0c0-.13,0-0.29.2-0.29v0.09c0.08,0.07.05,0.19,0.12,0.27s0.1,0.3-.11.38-0.08-.08-0.11-0.13A1,1,0,0,0,969.09,23Z" transform="translate(-963.62 -17.07)"/>
      <path class="cls-190" d="M971.5,22.55a0.26,0.26,0,0,1,.14-0.09,0,0,0,0,1,0,.06l-0.12.38a0.21,0.21,0,0,0-.09.18,0.33,0.33,0,0,0-.09.18l-0.09.06a0.64,0.64,0,0,1,0-.32,0.1,0.1,0,0,1,0-.09A0.69,0.69,0,0,0,971.5,22.55Z" transform="translate(-963.62 -17.07)"/>
      <path class="cls-132" d="M970.77,18.54a0.55,0.55,0,0,0-.2.45c-0.22-.15-0.07-0.3,0-0.45a0.21,0.21,0,0,1,0-.27s0-.08.06-0.07a0.14,0.14,0,0,1,0,.07,0.94,0.94,0,0,1,.12.18A0.08,0.08,0,0,1,970.77,18.54Z" transform="translate(-963.62 -17.07)"/>
      <path class="cls-191" d="M969.2,18.27v-0.1a1,1,0,0,0,.11-0.25,0.53,0.53,0,0,0,.19-0.26,0.15,0.15,0,0,1,.09-0.1h0a0.07,0.07,0,0,1,.09,0,0.57,0.57,0,0,1-.11.3A1.69,1.69,0,0,1,969.2,18.27Z" transform="translate(-963.62 -17.07)"/>
      <path class="cls-192" d="M969.3,23.35c0.16-.09.07-0.24,0.1-0.36l0,0a0.17,0.17,0,0,1,.15,0l0,0v0.12a0.69,0.69,0,0,0,0,.25,0.15,0.15,0,0,1,0,.08v0.23l-0.08-.06C969.35,23.53,969.23,23.47,969.3,23.35Z" transform="translate(-963.62 -17.07)"/>
      <path class="cls-191" d="M969.25,18.58a0.53,0.53,0,0,1-.34.31,0.13,0.13,0,0,1,0-.15l0.07-.12c0.18,0,.24-0.06.18-0.22l0,0a0.24,0.24,0,0,0,.15.09C969.41,18.55,969.31,18.55,969.25,18.58Z" transform="translate(-963.62 -17.07)"/>
      <path class="cls-129" d="M971.35,20.32v0.8a0.07,0.07,0,0,1-.1,0c0-.21,0-0.42,0-0.63S971.23,20.33,971.35,20.32Z" transform="translate(-963.62 -17.07)"/>
      <path class="cls-153" d="M971.26,21.12h0.1a0.88,0.88,0,0,1,0,.69,0.09,0.09,0,0,1-.12,0V21.12Z" transform="translate(-963.62 -17.07)"/>
      <path class="cls-193" d="M971.26,21.83h0.1l0,0a0.59,0.59,0,0,1,0,.32,0.21,0.21,0,0,1-.06.1v0.27c-0.12,0-.1-0.1-0.1-0.17S971.26,22,971.26,21.83Z" transform="translate(-963.62 -17.07)"/>
      <path class="cls-194" d="M968.81,21.43V20.76a0.21,0.21,0,0,1,.08,0A0.72,0.72,0,0,1,968.81,21.43Z" transform="translate(-963.62 -17.07)"/>
      <path class="cls-195" d="M969.4,22.73c0-.14,0-0.2.2-0.18a0.4,0.4,0,0,1,0,.34c-0.11.1-.17,0-0.24-0.05A0.08,0.08,0,0,1,969.4,22.73Z" transform="translate(-963.62 -17.07)"/>
      <path class="cls-196" d="M968.9,18.74V19a0.44,0.44,0,0,1-.1.27h-0.1A1,1,0,0,1,968.9,18.74Z" transform="translate(-963.62 -17.07)"/>
      <path class="cls-197" d="M969.89,17.38H970a0.1,0.1,0,0,0,.15,0,0.1,0.1,0,0,1,.11-0.1h0a0.07,0.07,0,0,1,0,.1c-0.07.07-.09,0.2-0.24,0.17A0.15,0.15,0,0,1,969.89,17.38Z" transform="translate(-963.62 -17.07)"/>
      <path class="cls-198" d="M969.25,18.58a0.22,0.22,0,0,0,.1-0.13h0c0.13,0,.09.12,0.09,0.19a0.08,0.08,0,0,1-.07.07C969.3,18.73,969.31,18.61,969.25,18.58Z" transform="translate(-963.62 -17.07)"/>
      <path class="cls-199" d="M968.81,22a0.82,0.82,0,0,1,.08-0.49c0,0.16.14,0.35-.08,0.49h0Z" transform="translate(-963.62 -17.07)"/>
      <path class="cls-200" d="M969.59,22.9V22.55a0.29,0.29,0,0,1,0,.45h0A0.06,0.06,0,0,1,969.59,22.9Z" transform="translate(-963.62 -17.07)"/>
      <path class="cls-201" d="M969.5,23.44V23.35a0.58,0.58,0,0,1,.11-0.11,0.09,0.09,0,0,1,.09,0,0.94,0.94,0,0,1,0,.33A0.6,0.6,0,0,0,969.5,23.44Z" transform="translate(-963.62 -17.07)"/>
      <path class="cls-202" d="M971.26,18.8l0.09,0.09c0,0.13.12,0.22,0.11,0.35l-0.05,0c-0.12,0-.07-0.08-0.05-0.13A0.49,0.49,0,0,1,971.26,18.8Z" transform="translate(-963.62 -17.07)"/>
      <path class="cls-203" d="M968.71,21.34v0.13l0,0.22h0a0.35,0.35,0,0,1-.05-0.27C968.58,21.36,968.56,21.23,968.71,21.34Z" transform="translate(-963.62 -17.07)"/>
      <path class="cls-204" d="M970.08,24c0,0.14,0,.2-0.2.18S969.93,24,970.08,24Z" transform="translate(-963.62 -17.07)"/>
      <path class="cls-205" d="M970.48,17.55a0.42,0.42,0,0,1,.2.27C970.43,17.84,970.48,17.68,970.48,17.55Z" transform="translate(-963.62 -17.07)"/>
      <path class="cls-206" d="M971.35,19.16a0.13,0.13,0,0,0,.05.13v0a0.57,0.57,0,0,1-.12.16A0.27,0.27,0,0,1,971.35,19.16Z" transform="translate(-963.62 -17.07)"/>
      <path class="cls-207" d="M970.91,18.89a0.46,0.46,0,0,1,0-.31L971,19C971,19,971,18.9,970.91,18.89Z" transform="translate(-963.62 -17.07)"/>
      <path class="cls-208" d="M970.77,18.54V18.45a0.12,0.12,0,0,1,0-.18,0.14,0.14,0,0,1,.15,0C970.85,18.35,970.92,18.5,970.77,18.54Z" transform="translate(-963.62 -17.07)"/>
      <path class="cls-209" d="M968.81,19.69V19.38C968.94,19.49,969,19.59,968.81,19.69Z" transform="translate(-963.62 -17.07)"/>
      <path class="cls-49" d="M971.45,20h-0.1a0.48,0.48,0,0,1,0-.27A0.39,0.39,0,0,1,971.45,20Z" transform="translate(-963.62 -17.07)"/>
      <path class="cls-210" d="M970.57,18.27v0.27C970.42,18.45,970.42,18.36,970.57,18.27Z" transform="translate(-963.62 -17.07)"/>
      <path class="cls-211" d="M969.4,22.73v0.09a0.12,0.12,0,0,1,0,.18h0c-0.18,0-.06-0.18-0.1-0.27h0.1Z" transform="translate(-963.62 -17.07)"/>
      <path class="cls-212" d="M971.35,22.9a0.09,0.09,0,0,1,0,.09,0.26,0.26,0,0,1,0-.25C971.39,22.77,971.34,22.85,971.35,22.9Z" transform="translate(-963.62 -17.07)"/>
      <path class="cls-213" d="M971.16,23.31l-0.1.13c-0.05,0-.11,0-0.07-0.08S971.06,23.22,971.16,23.31Z" transform="translate(-963.62 -17.07)"/>
      <path class="cls-214" d="M969.69,23.26h-0.1a0.12,0.12,0,0,1,0-.18h0C969.73,23.1,969.68,23.19,969.69,23.26Z" transform="translate(-963.62 -17.07)"/>
      <path class="cls-215" d="M970.77,18.27v0.18c-0.13,0-.09-0.11-0.1-0.18h0.1Z" transform="translate(-963.62 -17.07)"/>
      <path class="cls-216" d="M970.67,17.82a0.17,0.17,0,0,1,.1.18C970.63,18,970.68,17.89,970.67,17.82Z" transform="translate(-963.62 -17.07)"/>
      <path class="cls-217" d="M970.28,17.38v-0.1l0.08,0v0.12Z" transform="translate(-963.62 -17.07)"/>
      <path class="cls-217" d="M970.38,17.41a0.14,0.14,0,0,1,.1.14C970.37,17.55,970.37,17.49,970.38,17.41Z" transform="translate(-963.62 -17.07)"/>
      <path class="cls-2" d="M968.42,24.24V24.15c0-.16.07-0.18,0.2-0.18a2,2,0,0,1,.3.4,0,0,0,0,1,0,0,0.16,0.16,0,0,1-.2-0.11A0.17,0.17,0,0,0,968.42,24.24Z" transform="translate(-963.62 -17.07)"/>
      <path class="cls-218" d="M968.13,23.71c0-.13-0.21-0.05-0.2-0.18s0.18,0,.2-0.08h0a0.34,0.34,0,0,0,.21.18l0,0.09a0.16,0.16,0,0,1,0,.19,0.17,0.17,0,0,1-.2,0h0A0.43,0.43,0,0,0,968.13,23.71Z" transform="translate(-963.62 -17.07)"/>
      <path class="cls-161" d="M968.42,23.88V23.71a0.65,0.65,0,0,1,.2.26,0.33,0.33,0,0,0-.2.18c-0.13,0-.09-0.11-0.1-0.18A0.37,0.37,0,0,1,968.42,23.88Z" transform="translate(-963.62 -17.07)"/>
      <path class="cls-219" d="M969.21,24.94L969.3,25a0.07,0.07,0,0,1,0,.1c-0.17,0-.15-0.09-0.09-0.19v0Z" transform="translate(-963.62 -17.07)"/>
      <path class="cls-220" d="M969.79,28.25h0.1a2.29,2.29,0,0,1,0,.72q0,1.64,0,3.28a0.37,0.37,0,0,1,0,.28h0a0.28,0.28,0,0,1,0-.25Q969.79,30.27,969.79,28.25Z" transform="translate(-963.62 -17.07)"/>
      <path class="cls-221" d="M969.89,32.53V29a0.07,0.07,0,0,1,.09,0q0,1.69,0,3.37C970,32.41,970,32.51,969.89,32.53Z" transform="translate(-963.62 -17.07)"/>
      <path class="cls-222" d="M969.74,33a0.86,0.86,0,0,1,.1-0.36c0.23,0,.09.21,0.19,0.27l0.06,0,0,0C970,33,969.85,33.12,969.74,33Z" transform="translate(-963.62 -17.07)"/>
      <path class="cls-223" d="M970,29h-0.09V28.25c0.12,0,.1.1,0.1,0.17S970,28.78,970,29Z" transform="translate(-963.62 -17.07)"/>
      <path class="cls-224" d="M979.57,23.32a0.34,0.34,0,0,1-.1-0.35c0-.14,0-0.28,0-0.42s-0.11-.11-0.15-0.18a0.28,0.28,0,0,1,.25,0A2.26,2.26,0,0,1,979.57,23.32Z" transform="translate(-963.62 -17.07)"/>
      <path class="cls-157" d="M968.1,28.48a0.42,0.42,0,0,1,.34,0A0.32,0.32,0,0,1,968.1,28.48Z" transform="translate(-963.62 -17.07)"/>
      <path class="cls-71" d="M967.64,28.34h0.29c0,0.16-.2.06-0.29,0.09V28.34Z" transform="translate(-963.62 -17.07)"/>
      <path class="cls-225" d="M963.92,22.28v0.27h0a0.44,0.44,0,0,0,0,.32,0.23,0.23,0,0,1-.06.22l-0.08-.19,0-.35c0.1-.06,0-0.12,0-0.18a0.65,0.65,0,0,0,0-.48s-0.06-.09,0-0.14H964V22C963.93,22.08,964,22.21,963.92,22.28Z" transform="translate(-963.62 -17.07)"/>
      <path class="cls-148" d="M966.86,23.08c0-.14,0-0.2.19-0.18a0.28,0.28,0,0,0,.29.09A0.59,0.59,0,0,1,966.86,23.08Z" transform="translate(-963.62 -17.07)"/>
      <path class="cls-226" d="M969.59,29.68v2.85a0.19,0.19,0,0,1,0-.19q0-1.24,0-2.48A0.19,0.19,0,0,1,969.59,29.68Z" transform="translate(-963.62 -17.07)"/>
      <path class="cls-4" d="M969.74,33a0.63,0.63,0,0,0,.33,0,0.41,0.41,0,0,1-.37.09L969.63,33h0.11Z" transform="translate(-963.62 -17.07)"/>
      <path class="cls-227" d="M968.53,19.87l0-.09V19.7l0.09-.15C968.6,19.66,968.69,19.8,968.53,19.87Z" transform="translate(-963.62 -17.07)"/>
      <path class="cls-228" d="M964,24.07l-0.08-.15V23.84l0.08,0A0.11,0.11,0,0,1,964,24.07Z" transform="translate(-963.62 -17.07)"/>
      <path class="cls-229" d="M972.82,26.83h-0.1V26.74a0.25,0.25,0,0,1,.07,0A0.15,0.15,0,0,1,972.82,26.83Z" transform="translate(-963.62 -17.07)"/>
      <path class="cls-230" d="M977.51,29.23l0.1-.09h0.11a0.66,0.66,0,0,1-.2.26V29.23Z" transform="translate(-963.62 -17.07)"/>
      <path class="cls-231" d="M977.9,28.88V29l-0.18.19A0.22,0.22,0,0,1,977.9,28.88Z" transform="translate(-963.62 -17.07)"/>
      <path class="cls-232" d="M973.8,22.72V22.64a0.16,0.16,0,0,1,.16,0l0.06,0a0.4,0.4,0,0,0,.41,0c0.11,0,.2-0.1.31-0.12a0.19,0.19,0,0,1,.13,0l0.05,0a1.31,1.31,0,0,1-.83.26Z" transform="translate(-963.62 -17.07)"/>
      <path class="cls-233" d="M964.12,21.31l0.1,0a0.66,0.66,0,0,1,.18.1,0.49,0.49,0,0,1-.56-0.15h0.29Z" transform="translate(-963.62 -17.07)"/>
      <path class="cls-2" d="M970.47,24.15h0.1a0.14,0.14,0,0,1,0,.18,0.11,0.11,0,0,1-.09.1,0.3,0.3,0,0,0-.06-0.2C970.36,24.18,970.42,24.16,970.47,24.15Z" transform="translate(-963.62 -17.07)"/>
      <path class="cls-234" d="M973.31,25.67v0.18h-0.14A0.29,0.29,0,0,1,973.31,25.67Z" transform="translate(-963.62 -17.07)"/>
      <path class="cls-84" d="M974.77,22.55a1.39,1.39,0,0,1-.34.09c-0.08,0-.07,0-0.07-0.09s0.23-.35,0-0.54a0.12,0.12,0,0,1,0-.18,0.17,0.17,0,0,1,.2,0,0.36,0.36,0,0,0,.17.07c-0.18-.1-0.1-0.2,0-0.29a0.32,0.32,0,0,1,.43,0s0,0.11.05,0.13,0,0.11.07,0.17a2.13,2.13,0,0,0-.11.38,0,0,0,0,1,0,0,0.29,0.29,0,0,0-.29.09A1,1,0,0,0,974.77,22.55Z" transform="translate(-963.62 -17.07)"/>
      <path class="cls-235" d="M975.26,21.88a0.18,0.18,0,0,0,0-.18,0.18,0.18,0,0,1,0-.18,0.62,0.62,0,0,1,0,.5A0.11,0.11,0,0,1,975.26,21.88Z" transform="translate(-963.62 -17.07)"/>
      <path class="cls-236" d="M975.26,21.88V22a0.38,0.38,0,0,1-.1.23A0.47,0.47,0,0,1,975.26,21.88Z" transform="translate(-963.62 -17.07)"/>
      <path class="cls-237" d="M973.61,20.94a1.19,1.19,0,0,1,.39-0.17,1.09,1.09,0,0,1,.78.17l0,0c-0.21,0-.43,0-0.64,0a0.69,0.69,0,0,1-.41.07A0.27,0.27,0,0,1,973.61,20.94Z" transform="translate(-963.62 -17.07)"/>
      <path class="cls-238" d="M975,21.07h-0.1c-0.14,0-.14,0-0.1-0.13h0A0.23,0.23,0,0,1,975,21.07Z" transform="translate(-963.62 -17.07)"/>
      <path class="cls-223" d="M966.37,22.37h-0.29c0-.09,0-0.12.1-0.09S966.35,22.25,966.37,22.37Z" transform="translate(-963.62 -17.07)"/>
      <path class="cls-144" d="M966.17,22.28a0.09,0.09,0,0,0-.1.09,0.08,0.08,0,0,1-.1-0.09V22.19h0.2v0.09Z" transform="translate(-963.62 -17.07)"/>
      <path class="cls-208" d="M964.41,21.57c0,0.12-.12.08-0.2,0.09S964.33,21.57,964.41,21.57Z" transform="translate(-963.62 -17.07)"/>
      <path class="cls-239" d="M968.43,20.42c0.09-.1,0-0.23.08-0.33v0.68c0,0.14-.09.32,0.16,0.4,0.06,0,0,.12,0,0.19s-0.08.08-.15,0.09h0Z" transform="translate(-963.62 -17.07)"/>
      <path class="cls-2" d="M966.27,27.54v0l-0.09,0-0.07-.08a0.31,0.31,0,0,0,.06-0.27C966.35,27.32,966.24,27.45,966.27,27.54Z" transform="translate(-963.62 -17.07)"/>
      <path class="cls-240" d="M978.68,27.27a0.18,0.18,0,0,1,.05-0.17h0.05l-0.05.22,0,0A0.07,0.07,0,0,1,978.68,27.27Z" transform="translate(-963.62 -17.07)"/>
      <path class="cls-96" d="M974.77,21c0,0.06,0,.12.1,0.13a0.24,0.24,0,0,0,.29.31v0.18c-0.34,0-.34,0-0.45.24a2.12,2.12,0,0,1,.22.06c-0.19.12-.19,0.12-0.36,0a0.12,0.12,0,0,0-.17,0c0,0.05,0,.1,0,0.15,0.19,0.22.17,0.33-.06,0.52a0.34,0.34,0,0,1-.39.09h0a0.46,0.46,0,0,0-.29,0h-0.09a0,0,0,0,1,0,0c-0.06-.15-0.23-0.22-0.29-0.37s0,0,0,0a0.45,0.45,0,0,1,.2,0,0.37,0.37,0,0,1,0-.17,0.27,0.27,0,0,0,.06-0.19,0.33,0.33,0,0,0-.06-0.25,0.3,0.3,0,0,0-.1-0.21A0.51,0.51,0,0,1,973.7,21a0.2,0.2,0,0,0,.09,0A1.43,1.43,0,0,1,974.77,21Z" transform="translate(-963.62 -17.07)"/>
      <path class="cls-241" d="M973.41,21.39c0.24,0,0,.14.1,0.18a0.28,0.28,0,0,1,0,.23,0.49,0.49,0,0,1,0,.22,0.14,0.14,0,0,0,0,0c0,0.06.14,0.11,0.07,0.18a0.16,0.16,0,0,1-.21,0h-0.07a1,1,0,0,1-.1-0.62C973.3,21.53,973.21,21.33,973.41,21.39Z" transform="translate(-963.62 -17.07)"/>
      <path class="cls-242" d="M973.41,21.39c-0.14,0-.05.19-0.19,0.18V21.38l0-.11a0.25,0.25,0,0,0,.11-0.14l0.08-.09c0.1,0,.1-0.11.2-0.1a0.08,0.08,0,0,1,.09.09A4.23,4.23,0,0,0,973.41,21.39Z" transform="translate(-963.62 -17.07)"/>
      <path class="cls-243" d="M973.31,22.23c0.1,0.12.35,0.14,0.29,0.37a0.43,0.43,0,0,1-.29-0.24V22.23Z" transform="translate(-963.62 -17.07)"/>
      <path class="cls-244" d="M970.18,17.38c0,0.07-.1.14-0.15,0h0.15Z" transform="translate(-963.62 -17.07)"/>
      <path class="cls-1" d="M977.32,23V22.91l0.29-.1H978A3.09,3.09,0,0,1,977.32,23Z" transform="translate(-963.62 -17.07)"/>
      <path class="cls-1" d="M979.31,22.37a0.23,0.23,0,0,1,.22.12s0,0.05-.07.06a0.18,0.18,0,0,0-.2-0.09V22.38h0Z" transform="translate(-963.62 -17.07)"/>
      <path class="cls-196" d="M968.71,19.24a0.27,0.27,0,0,1-.09.27V19.34Z" transform="translate(-963.62 -17.07)"/>
      <path class="cls-245" d="M977.17,29.68a0.13,0.13,0,0,0,0-.13,0.42,0.42,0,0,0,.13,0s0,0,0,.07l-0.15.17C977.13,29.78,977.14,29.74,977.17,29.68Z" transform="translate(-963.62 -17.07)"/>
      <path class="cls-246" d="M977.37,29.6l-0.05-.05a0.09,0.09,0,0,1,0-.13c0.06,0.12.13-.07,0.19,0v0.08Z" transform="translate(-963.62 -17.07)"/>
      <path class="cls-113" d="M977.17,29.68a0.08,0.08,0,0,0,.05.09,0.13,0.13,0,0,1-.09.1A0.16,0.16,0,0,1,977.17,29.68Z" transform="translate(-963.62 -17.07)"/>
      <path class="cls-247" d="M971.56,29.15l0.08-.19a0.43,0.43,0,0,1-.06.54,0.08,0.08,0,0,1-.08,0Z" transform="translate(-963.62 -17.07)"/>
      <path class="cls-248" d="M971.5,29.5h0a0.11,0.11,0,0,1,0,.09,0.14,0.14,0,0,1,0,.09v0.18a0.07,0.07,0,0,1-.09,0V29.72A0.39,0.39,0,0,1,971.5,29.5Z" transform="translate(-963.62 -17.07)"/>
      <path class="cls-1" d="M972.33,27.4v0.14a0.09,0.09,0,0,1-.09-0.12h0.09Z" transform="translate(-963.62 -17.07)"/>
      <path class="cls-14" d="M964,24.07V23.89a1.15,1.15,0,0,0-.19-0.63V23.09c0-.12,0-0.25,0-0.37s0-.16.1-0.17c-0.06.25,0.16,0.47,0.1,0.71,0.07,0,0,.13.1,0.18s0,0.36,0,.53,0,0.16-.09.18Z" transform="translate(-963.62 -17.07)"/>
      <path class="cls-249" d="M963.73,21.74a0.75,0.75,0,0,1,.1.54,0.08,0.08,0,0,1-.09.08l-0.05-.62h0Z" transform="translate(-963.62 -17.07)"/>
      <path class="cls-250" d="M971.65,22.51V22.46c0.05-.11-0.1-0.28.11-0.35v0.18a0,0,0,0,0,0,0Z" transform="translate(-963.62 -17.07)"/>
      <path class="cls-251" d="M974.77,22.55c0-.07,0-0.16.1-0.18V22.5Z" transform="translate(-963.62 -17.07)"/>
      <path class="cls-184" d="M965.1,26.2h0.19v0.09h-0.2V26.2Z" transform="translate(-963.62 -17.07)"/>
      <path class="cls-252" d="M970.57,24.33V24.15a0.14,0.14,0,0,0,.15,0l-0.05.13Z" transform="translate(-963.62 -17.07)"/>
      <path class="cls-252" d="M970.77,24.1c0-.07,0-0.13.1-0.13A0.13,0.13,0,0,1,970.77,24.1Z" transform="translate(-963.62 -17.07)"/>
      <path class="cls-253" d="M971.46,29.86h0.09c0,0.09.08,0.22-.09,0.27V29.86Z" transform="translate(-963.62 -17.07)"/>
      <path class="cls-254" d="M971.55,29.59V29.5a0.76,0.76,0,0,0,.1-0.54,0.06,0.06,0,0,1,0,0c0.05,0,.06,0,0.09,0a3.18,3.18,0,0,0,.1.71,0.07,0.07,0,0,1-.1,0h0A0.26,0.26,0,0,0,971.55,29.59Z" transform="translate(-963.62 -17.07)"/>
      <path class="cls-247" d="M971.74,29l-0.09,0V28.84l0.09-.15V29Z" transform="translate(-963.62 -17.07)"/>
      <path class="cls-103" d="M978.68,27.27v0.1a0.24,0.24,0,0,1-.09.18V27.23Z" transform="translate(-963.62 -17.07)"/>
      <path class="cls-255" d="M973.7,22.63a0.25,0.25,0,0,1,.29,0H973.7Z" transform="translate(-963.62 -17.07)"/>
      <path class="cls-253" d="M971.74,29.68h0.1c0.18,0.07.07,0.21,0.1,0.31l-0.2,0V29.68Z" transform="translate(-963.62 -17.07)"/>
      <path class="cls-115" d="M979.17,24V23.26c0.14,0,.21,0,0.2.17s0,0.36,0,.54h-0.2Z" transform="translate(-963.62 -17.07)"/>
      <path class="cls-256" d="M977.32,29.41v0.13s-0.06,0-.09,0-0.08-.09,0-0.14A0.27,0.27,0,0,1,977.32,29.41Z" transform="translate(-963.62 -17.07)"/>
      <path class="cls-253" d="M971.55,29.59c0.15-.12.19,0,0.19,0.09h-0.19V29.59Z" transform="translate(-963.62 -17.07)"/>
      <path class="cls-72" d="M963.92,22.28c0-.09-0.08-0.22.1-0.27C964,22.1,964.1,22.23,963.92,22.28Z" transform="translate(-963.62 -17.07)"/>
      <path class="cls-257" d="M968.13,23.71c0.13,0,.09.11,0.1,0.18l-0.1-.09V23.71Z" transform="translate(-963.62 -17.07)"/>
      <path class="cls-258" d="M964.12,23.44c-0.13,0-.09-0.11-0.1-0.18h0.1v0.18Z" transform="translate(-963.62 -17.07)"/>
      <path class="cls-259" d="M964.61,25h0.1v0.18C964.57,25.12,964.62,25,964.61,25Z" transform="translate(-963.62 -17.07)"/>
      <path class="cls-260" d="M968.42,23.88a0.09,0.09,0,0,1-.1.09h-0.1V23.88h0.2Z" transform="translate(-963.62 -17.07)"/>
      <path class="cls-261" d="M965.49,26.56h-0.1V26.38C965.52,26.4,965.48,26.49,965.49,26.56Z" transform="translate(-963.62 -17.07)"/>
      <path class="cls-2" d="M969.3,25.13a0.06,0.06,0,0,1,0,0,0.11,0.11,0,0,1-.1,0h-0.1c0-.09-0.09-0.22.09-0.26C969.21,25,969.17,25.12,969.3,25.13Z" transform="translate(-963.62 -17.07)"/>
      <path class="cls-262" d="M971.35,21.83V21.12h0.2v0.71h0a0.15,0.15,0,0,1-.2,0h0Z" transform="translate(-963.62 -17.07)"/>
      <path class="cls-263" d="M971.35,21.83h0.2v0.36a0.15,0.15,0,0,1-.19,0V21.83Z" transform="translate(-963.62 -17.07)"/>
      <path class="cls-190" d="M971.35,22.19h0.19c0,0.12-.12.08-0.19,0.09V22.19Z" transform="translate(-963.62 -17.07)"/>
      <path class="cls-2" d="M969.4,23V22.81l0.19,0.09V23h-0.2Z" transform="translate(-963.62 -17.07)"/>
      <path class="cls-264" d="M969.59,23.08v0.18a0.09,0.09,0,0,1-.1.09C969.53,23.26,969.42,23.13,969.59,23.08Z" transform="translate(-963.62 -17.07)"/>
      <path class="cls-265" d="M974,22.64c0.15,0,.24-0.12.39-0.09a0.09,0.09,0,0,0,.05.09A0.31,0.31,0,0,1,974,22.64Z" transform="translate(-963.62 -17.07)"/>
      <path class="cls-105" d="M973.5,21.83V21.57c0.18,0,.06.18,0.1,0.27A0.07,0.07,0,0,1,973.5,21.83Z" transform="translate(-963.62 -17.07)"/>
      <path class="cls-266" d="M973.5,21.83h0.1c0,0.07,0,.16-0.1.18S973.42,21.89,973.5,21.83Z" transform="translate(-963.62 -17.07)"/>
      <path class="cls-267" d="M974.24,21.1a0.43,0.43,0,0,1,.21-0.06,0,0,0,0,1,0,0A0.2,0.2,0,0,1,974.24,21.1Z" transform="translate(-963.62 -17.07)"/>
    </g>
    <rect class="cls-268" width="16" height="16"/>
  </g>
</svg>
