<svg id="Layer_1" data-name="Layer 1" xmlns="http://www.w3.org/2000/svg" viewBox="0 0 8 8">
  <defs>
    <style>
      .cls-1 {
        fill: none;
      }

      .cls-2 {
        fill: #8b8a91;
      }
    </style>
  </defs>
  <title>lolol</title>
  <g>
    <rect class="cls-1" width="8" height="8" rx="1" ry="1"/>
    <path id="x" class="cls-2" d="M1289.65,38.45h0l-1.41-1.38,1.41-1.38h0a0.47,0.47,0,0,0,0-.68,0.5,0.5,0,0,0-.69,0l-1.41,1.38L1286.12,35h0a0.5,0.5,0,0,0-.69,0,0.47,0.47,0,0,0,0,.68h0l1.41,1.38-1.41,1.38h0a0.47,0.47,0,0,0,0,.68,0.5,0.5,0,0,0,.69,0h0l1.41-1.38,1.41,1.38h0a0.5,0.5,0,0,0,.69,0A0.47,0.47,0,0,0,1289.65,38.45Z" transform="translate(-1283.53 -33.07)"/>
  </g>
</svg>
