<svg id="Layer_1" data-name="Layer 1" xmlns="http://www.w3.org/2000/svg" viewBox="0 0 24 24">
  <defs>
    <style>
      .cls-1 {
        fill: none;
      }

      .cls-2 {
        fill: #464656;
      }
    </style>
  </defs>
  <title>gear</title>
  <rect class="cls-1" width="24" height="24"/>
  <path id="path-5" class="cls-2" d="M18.72,10.17V9.76L17.29,7.32c0-.2-0.2-0.2-0.41-0.2l-1.63.61L14,7.11l-0.2-1.83a0.71,0.71,0,0,0-.41-0.2H10.57c-0.2,0-.41,0-0.41.2L10,7.11l-1.22.61L7.11,7.11c-0.2,0-.41,0-0.41.2L5.28,9.76c-0.2.2-.2,0.2,0,0.41l1.43,1.22v1.22L5.28,13.83v0.41l1.43,2.44c0,0.2.2,0.2,0.41,0.2l1.63-.61L10,16.89l0.2,1.83a0.71,0.71,0,0,0,.41.2h2.85c0.2,0,.41,0,0.41-0.2L14,16.89l1.22-.61,1.63,0.61c0.2,0,.41,0,0.41-0.2l1.43-2.44c0.2-.2.2-0.2,0-0.41l-1.43-1.22V11.39Zm-6.33-.61A2.35,2.35,0,0,1,14.65,12,2.44,2.44,0,1,1,12.2,9.56h0.18Z" transform="translate(0 0)"/>
</svg>
