<svg id="Layer_1" data-name="Layer 1" xmlns="http://www.w3.org/2000/svg" viewBox="0 0 17.55 17">
  <defs>
    <style>
      .cls-1 {
        fill: none;
        stroke: #c5c4c8;
        stroke-linecap: round;
        stroke-miterlimit: 10;
      }

      .cls-2 {
        fill: #c5c4c8;
      }
    </style>
  </defs>
  <title>refresh_start</title>
  <g>
    <line class="cls-1" x1="0.5" y1="0.5" x2="0.5" y2="16.5"/>
    <path id="refresh_2" data-name="refresh 2" class="cls-2" d="M929.71,23.9a0.62,0.62,0,0,0-.86-0.06,4.13,4.13,0,0,1-4.56.52A3.9,3.9,0,0,1,922.58,19a4.11,4.11,0,0,1,4.93-1.88L927,18a0.28,0.28,0,0,0,.26.4l1.66-.07,1.66-.07a0.28,0.28,0,0,0,.23-0.42L930,16.49l-0.89-1.36a0.29,0.29,0,0,0-.49,0l-0.51.94a5.35,5.35,0,0,0-6.58,2.4,5.06,5.06,0,0,0,2.23,6.92,5.36,5.36,0,0,0,5.92-.68A0.58,0.58,0,0,0,929.71,23.9Z" transform="translate(-913.35 -12)"/>
  </g>
</svg>
