<svg id="Layer_1" data-name="Layer 1" xmlns="http://www.w3.org/2000/svg" viewBox="0 0 24 24">
  <defs>
    <style>
      .cls-1, .cls-2 {
        fill: none;
      }

      .cls-2 {
        stroke: #ccccce;
        stroke-linecap: round;
        stroke-miterlimit: 10;
        stroke-width: 0.25px;
      }

      .cls-3 {
        fill: #ccccce;
      }
    </style>
  </defs>
  <title>refresh</title>
  <rect class="cls-1" width="24" height="24"/>
  <rect class="cls-1" x="4.11" y="4.11" width="15.78" height="15.78"/>
  <rect class="cls-1" x="1.48" y="1.48" width="21.04" height="21.04" transform="translate(24 24) rotate(-180)"/>
  <line class="cls-2" x1="5.72" y1="4.15" x2="5.72" y2="19.89"/>
  <path id="refresh_2" data-name="refresh 2" class="cls-3" d="M19.46,15.33a0.6,0.6,0,0,0-.85-0.06,4,4,0,1,1-1.32-6.8l-0.46.87a0.28,0.28,0,0,0,.26.41l1.64-.07,1.64-.07a0.28,0.28,0,0,0,.23-0.43L19.72,7.8,18.84,6.41a0.28,0.28,0,0,0-.49,0l-0.5,1a5.21,5.21,0,1,0,1.55,8.79A0.6,0.6,0,0,0,19.46,15.33Z" transform="translate(0 0)"/>
</svg>
